<svg width="88" height="88" viewBox="0 0 88 88" fill="none" xmlns="http://www.w3.org/2000/svg">
<rect x="0.25" y="0.25" width="87.5" height="87.5" rx="43.75" fill="#B2CCD8"/>
<g clip-path="url(#clip0_847_4814)">
<path d="M61.3564 45.3838C61.092 48.7066 59.8793 51.8836 57.8624 54.5375C55.8455 57.1913 53.1092 59.2104 49.9785 60.3549C46.8479 61.4994 43.4545 61.7211 40.2015 60.9938C36.9486 60.2665 33.9727 58.6207 31.6276 56.2518C29.2825 53.883 27.6667 50.8908 26.9721 47.6307C26.2775 44.3706 26.5333 40.9796 27.7092 37.8606C28.8851 34.7416 30.9316 32.0258 33.6056 30.0356C36.2796 28.0455 39.4686 26.8648 42.7939 26.6338" stroke="#065B82" stroke-width="1.5625" stroke-linecap="round" stroke-linejoin="round"/>
<path d="M51.4713 46.9212C50.9876 48.1662 50.2012 49.271 49.1832 50.1356C48.1652 51.0003 46.9477 51.5976 45.6409 51.8735C44.334 52.1494 42.979 52.0952 41.6984 51.7158C40.4178 51.3363 39.2519 50.6437 38.3062 49.7005C37.3606 48.7572 36.6649 47.5932 36.2822 46.3135C35.8995 45.0339 35.8418 43.679 36.1144 42.3715C36.3869 41.0639 36.981 39.8449 37.8431 38.8247C38.7051 37.8045 39.8079 37.0152 41.0516 36.5283M43.9981 44.0015L50.6945 37.3051M50.6945 37.3051L56.0516 38.6444L61.4088 33.2872L56.0516 31.948L54.7124 26.5908L49.3552 31.948L50.6945 37.3051Z" stroke="#065B82" stroke-width="1.5625" stroke-linecap="round" stroke-linejoin="round"/>
</g>
<rect x="8" y="8" width="72" height="72" rx="36" fill="#8CB4C6"/>
<g clip-path="url(#clip1_847_4814)">
<path d="M61.1064 45.1338C60.842 48.4566 59.6293 51.6336 57.6124 54.2875C55.5955 56.9413 52.8592 58.9604 49.7285 60.1049C46.5979 61.2494 43.2045 61.4711 39.9515 60.7438C36.6986 60.0165 33.7227 58.3707 31.3776 56.0018C29.0325 53.633 27.4167 50.6408 26.7221 47.3807C26.0275 44.1206 26.2833 40.7296 27.4592 37.6106C28.6351 34.4916 30.6816 31.7758 33.3556 29.7856C36.0296 27.7955 39.2186 26.6148 42.5439 26.3838" stroke="#E6EFF3" stroke-width="1.5625" stroke-linecap="round" stroke-linejoin="round"/>
<path d="M51.2213 46.6712C50.7376 47.9162 49.9512 49.021 48.9332 49.8856C47.9152 50.7503 46.6977 51.3476 45.3909 51.6235C44.084 51.8994 42.729 51.8452 41.4484 51.4658C40.1678 51.0863 39.0019 50.3937 38.0562 49.4505C37.1106 48.5072 36.4149 47.3432 36.0322 46.0635C35.6495 44.7839 35.5918 43.429 35.8644 42.1215C36.1369 40.8139 36.731 39.5949 37.5931 38.5747C38.4551 37.5545 39.5579 36.7652 40.8016 36.2783M43.7481 43.7515L50.4445 37.0551M50.4445 37.0551L55.8016 38.3944L61.1588 33.0372L55.8016 31.698L54.4624 26.3408L49.1052 31.698L50.4445 37.0551Z" stroke="#E6EFF3" stroke-width="1.5625" stroke-linecap="round" stroke-linejoin="round"/>
</g>
<rect x="13.5" y="13.5" width="61" height="61" rx="30.5" fill="#5891AB"/>
<path d="M61.6064 45.6338C61.342 48.9566 60.1293 52.1336 58.1124 54.7875C56.0955 57.4413 53.3592 59.4604 50.2285 60.6049C47.0979 61.7494 43.7045 61.9711 40.4515 61.2438C37.1986 60.5165 34.2227 58.8707 31.8776 56.5018C29.5325 54.133 27.9167 51.1408 27.2221 47.8807C26.5275 44.6206 26.7833 41.2296 27.9592 38.1106C29.1351 34.9916 31.1816 32.2758 33.8556 30.2856C36.5296 28.2955 39.7186 27.1148 43.0439 26.8838" stroke="#E6EFF3" stroke-width="1.5625" stroke-linecap="round" stroke-linejoin="round"/>
<path d="M51.7213 47.1712C51.2376 48.4162 50.4512 49.521 49.4332 50.3856C48.4152 51.2503 47.1977 51.8476 45.8909 52.1235C44.584 52.3994 43.229 52.3452 41.9484 51.9658C40.6678 51.5863 39.5019 50.8937 38.5562 49.9505C37.6106 49.0072 36.9149 47.8432 36.5322 46.5635C36.1495 45.2839 36.0918 43.929 36.3644 42.6215C36.6369 41.3139 37.231 40.0949 38.0931 39.0747C38.9551 38.0545 40.0579 37.2652 41.3016 36.7783M44.2481 44.2515L50.9445 37.5551M50.9445 37.5551L56.3016 38.8944L61.6588 33.5372L56.3016 32.198L54.9624 26.8408L49.6052 32.198L50.9445 37.5551Z" stroke="#E6EFF3" stroke-width="1.5625" stroke-linecap="round" stroke-linejoin="round"/>
<defs>
<clipPath id="clip0_847_4814">
<rect width="37.5" height="37.5" fill="white" transform="translate(25.25 25.251)"/>
</clipPath>
<clipPath id="clip1_847_4814">
<rect width="37.5" height="37.5" fill="white" transform="translate(25 25.001)"/>
</clipPath>
</defs>
</svg>
