<svg width="88" height="87" viewBox="0 0 88 87" fill="none" xmlns="http://www.w3.org/2000/svg">
<rect x="0.648438" y="0.150391" width="86.7" height="86.7" rx="43.35" fill="#B2CCD8"/>
<path d="M24.7266 28.6758V40.5352H33.08L38.0684 49.2933V59.8066H49.9277V47.9473H40.7115L36.494 40.5352H36.5859V36.0879H51.4102V40.5352H63.2695V28.6758H51.4102V33.123H36.5859V28.6758H24.7266ZM27.6914 31.6406H33.6211V37.5703H27.6914V31.6406ZM54.375 31.6406H60.3047V37.5703H54.375V31.6406ZM41.6529 50.9121H46.9629V56.8418H41.0332V51.2649L41.6529 50.9121Z" fill="#065B82"/>
<rect x="7.5" y="7.5" width="73" height="72" rx="36" fill="#8CB4C6"/>
<path d="M25.5781 29.0254V40.8848H33.9316L38.9199 49.6429V60.1562H50.7793V48.2969H41.5631L37.3456 40.8848H37.4375V36.4375H52.2617V40.8848H64.1211V29.0254H52.2617V33.4727H37.4375V29.0254H25.5781ZM28.543 31.9902H34.4727V37.9199H28.543V31.9902ZM55.2266 31.9902H61.1562V37.9199H55.2266V31.9902ZM42.5044 51.2617H47.8145V57.1914H41.8848V51.6145L42.5044 51.2617Z" fill="#E6EFF3"/>
<rect x="17" y="17" width="54" height="53" rx="26.5" fill="#5891AB"/>
<path d="M25.0781 29.5254V41.3848H33.4316L38.4199 50.1429V60.6562H50.2793V48.7969H41.0631L36.8456 41.3848H36.9375V36.9375H51.7617V41.3848H63.6211V29.5254H51.7617V33.9727H36.9375V29.5254H25.0781ZM28.043 32.4902H33.9727V38.4199H28.043V32.4902ZM54.7266 32.4902H60.6562V38.4199H54.7266V32.4902ZM42.0044 51.7617H47.3145V57.6914H41.3848V52.1145L42.0044 51.7617Z" fill="#E6EFF3"/>
</svg>
