<svg width="87" height="87" viewBox="0 0 87 87" fill="none" xmlns="http://www.w3.org/2000/svg">
<rect x="0.535156" y="0.701172" width="85.5977" height="85.5977" rx="42.7988" fill="#F8B1DB"/>
<path d="M43.3366 61.7667C39.2428 60.5507 35.8414 58.0704 33.1321 54.3259C30.4243 50.5799 29.0703 46.3605 29.0703 41.6676V30.6459L43.3366 25.3164L57.6029 30.6459V41.6676C57.6029 43.9543 57.2476 46.1961 56.537 48.3931C55.8264 50.5874 54.7238 52.6907 53.2292 54.7029L46.9419 48.4176C46.4351 48.817 45.8726 49.116 45.2544 49.3143C44.6375 49.5154 43.9983 49.616 43.3366 49.616C41.6559 49.616 40.2164 49.0175 39.018 47.8204C37.8196 46.6234 37.2211 45.1839 37.2225 43.5018C37.2225 41.8211 37.821 40.3816 39.018 39.1832C40.215 37.9849 41.6545 37.3864 43.3366 37.3877C45.0187 37.3877 46.4582 37.9862 47.6552 39.1832C48.8522 40.3802 49.4507 41.8198 49.4507 43.5018C49.4507 44.1309 49.3576 44.7382 49.1715 45.3238C48.9854 45.9094 48.7306 46.4597 48.4072 46.9747L52.9541 51.5195C53.7381 50.0494 54.3699 48.5045 54.8495 46.885C55.3264 45.2641 55.5648 43.5249 55.5648 41.6676V32.0379L43.3366 27.493L31.1084 32.0379V41.6676C31.1084 45.7776 32.2632 49.5141 34.573 52.8768C36.8828 56.2396 39.804 58.4814 43.3366 59.6023C44.2197 59.3306 45.0608 58.9828 45.8597 58.5589C46.6586 58.135 47.448 57.6336 48.2279 57.0548L49.5119 58.5752C48.4969 59.3089 47.5119 59.9312 46.5567 60.442C45.6015 60.9515 44.5282 61.3931 43.3366 61.7667ZM43.3366 47.5779C44.4575 47.5779 45.4174 47.1791 46.2163 46.3816C47.0153 45.584 47.414 44.6241 47.4127 43.5018C47.4127 42.3809 47.0139 41.4217 46.2163 40.6241C45.4188 39.8266 44.4589 39.4271 43.3366 39.4258C42.2157 39.4258 41.2564 39.8252 40.4589 40.6241C39.6613 41.423 39.2619 42.3823 39.2605 43.5018C39.2605 44.6228 39.66 45.5827 40.4589 46.3816C41.2578 47.1805 42.217 47.5793 43.3366 47.5779Z" fill="#EE35A3"/>
<rect x="7.9375" y="8.10352" width="70.793" height="70.793" rx="35.3965" fill="#F58BCA"/>
<path d="M43.3379 58.6069C39.9522 57.6012 37.139 55.5499 34.8984 52.453C32.6588 49.355 31.5391 45.8653 31.5391 41.9841V32.8686L43.3379 28.4609L55.1367 32.8686V41.9841C55.1367 43.8753 54.8429 45.7294 54.2552 47.5464C53.6675 49.3612 52.7556 51.1006 51.5195 52.7648L46.3196 47.5666C45.9005 47.897 45.4353 48.1442 44.924 48.3083C44.4138 48.4746 43.8851 48.5577 43.3379 48.5577C41.9479 48.5577 40.7573 48.0627 39.7662 47.0728C38.7751 46.0828 38.2801 44.8922 38.2813 43.5011C38.2813 42.1111 38.7762 40.9205 39.7662 39.9294C40.7562 38.9383 41.9468 38.4433 43.3379 38.4444C44.729 38.4444 45.9196 38.9394 46.9096 39.9294C47.8995 40.9194 48.3945 42.1099 48.3945 43.5011C48.3945 44.0213 48.3176 44.5236 48.1636 45.008C48.0097 45.4923 47.799 45.9474 47.5315 46.3732L51.292 50.132C51.9404 48.9162 52.4629 47.6385 52.8595 46.2991C53.254 44.9585 53.4512 43.5202 53.4512 41.9841V34.0199L43.3379 30.2611L33.2246 34.0199V41.9841C33.2246 45.3833 34.1798 48.4734 36.09 51.2546C38.0003 54.0357 40.4163 55.8898 43.3379 56.8169C44.0683 56.5922 44.7639 56.3045 45.4246 55.9539C46.0853 55.6033 46.7382 55.1887 47.3832 54.71L48.4451 55.9674C47.6057 56.5742 46.791 57.0888 46.0011 57.5113C45.2111 57.9327 44.3234 58.2979 43.3379 58.6069ZM43.3379 46.8722C44.2649 46.8722 45.0588 46.5424 45.7196 45.8828C46.3803 45.2231 46.7101 44.4292 46.709 43.5011C46.709 42.574 46.3792 41.7807 45.7196 41.1211C45.06 40.4615 44.2661 40.1311 43.3379 40.13C42.4108 40.13 41.6175 40.4603 40.9579 41.1211C40.2983 41.7818 39.9679 42.5751 39.9668 43.5011C39.9668 44.4281 40.2972 45.222 40.9579 45.8828C41.6186 46.5435 42.412 46.8733 43.3379 46.8722Z" fill="#FDE6F4"/>
<rect x="15.3359" y="15.5" width="56" height="56" rx="28" fill="#F155B2"/>
<path d="M43.7363 59.0034C40.3506 57.9977 37.5374 55.9464 35.2968 52.8495C33.0573 49.7515 31.9375 46.2618 31.9375 42.3806V33.2651L43.7363 28.8574L55.5352 33.2651V42.3806C55.5352 44.2718 55.2413 46.1259 54.6536 47.9429C54.0659 49.7576 53.154 51.4971 51.918 53.1613L46.7181 47.9631C46.2989 48.2935 45.8337 48.5407 45.3224 48.7047C44.8123 48.871 44.2836 48.9542 43.7363 48.9542C42.3463 48.9542 41.1558 48.4592 40.1647 47.4692C39.1736 46.4793 38.6786 45.2887 38.6797 43.8976C38.6797 42.5075 39.1747 41.317 40.1647 40.3259C41.1546 39.3348 42.3452 38.8398 43.7363 38.8409C45.1275 38.8409 46.318 39.3359 47.308 40.3259C48.298 41.3159 48.793 42.5064 48.793 43.8976C48.793 44.4178 48.716 44.9201 48.562 45.4044C48.4081 45.8888 48.1974 46.3439 47.93 46.7697L51.6904 50.5285C52.3388 49.3127 52.8613 48.035 53.258 46.6956C53.6524 45.355 53.8496 43.9167 53.8496 42.3806V34.4164L43.7363 30.6576L33.623 34.4164V42.3806C33.623 45.7798 34.5782 48.8699 36.4885 51.6511C38.3988 54.4322 40.8147 56.2863 43.7363 57.2134C44.4667 56.9886 45.1623 56.701 45.823 56.3504C46.4838 55.9998 47.1366 55.5851 47.7816 55.1064L48.8435 56.3639C48.0041 56.9707 47.1895 57.4853 46.3995 57.9078C45.6095 58.3292 44.7218 58.6944 43.7363 59.0034ZM43.7363 47.2687C44.6634 47.2687 45.4573 46.9388 46.118 46.2792C46.7787 45.6196 47.1085 44.8257 47.1074 43.8976C47.1074 42.9705 46.7776 42.1772 46.118 41.5176C45.4584 40.858 44.6645 40.5276 43.7363 40.5265C42.8093 40.5265 42.0159 40.8568 41.3563 41.5176C40.6967 42.1783 40.3664 42.9716 40.3652 43.8976C40.3652 44.8246 40.6956 45.6185 41.3563 46.2792C42.0171 46.94 42.8104 47.2698 43.7363 47.2687Z" fill="#FDE6F4"/>
</svg>
