<svg width="86" height="87" viewBox="0 0 86 87" fill="none" xmlns="http://www.w3.org/2000/svg">
<rect x="0.203125" y="0.699219" width="85.6" height="85.6" rx="42.8" fill="#B2CCD8"/>
<g clip-path="url(#clip0_847_4847)">
<path d="M57.8762 45.6341V38.1325C57.8762 37.0679 58.7474 36.2021 59.818 36.2021C60.3299 36.2023 60.8207 36.4057 61.1826 36.7677C61.5445 37.1297 61.7478 37.6206 61.7478 38.1325V48.4044C61.7474 49.8213 61.2411 51.1915 60.3201 52.2682L53.9149 59.0706C53.2792 59.6691 53.1234 60.1987 53.1234 61.0016V62.2399H46.1514L46.1437 59.2935C46.1437 58.1713 46.052 56.6717 47.4563 55.2003L55.584 47.039C55.8673 46.7561 56.2496 46.5945 56.65 46.5883C57.0503 46.5821 57.4374 46.7319 57.7293 47.006C58.0212 47.2801 58.1951 47.657 58.2141 48.0569C58.2331 48.4569 58.0959 48.8486 57.8313 49.1491L53.9113 53.3484C53.6572 53.6461 53.2271 54.2075 53.0138 54.8953C52.8987 55.2524 52.8658 55.6005 52.8592 56.0001H54.1209C54.1257 55.7155 54.1473 55.4866 54.215 55.2746C54.3384 54.8779 54.5841 54.5209 54.7692 54.292L58.7486 49.9244C59.2488 49.4199 59.5232 48.7669 59.5232 48.0803C59.5232 47.0492 58.9031 46.1008 57.8774 45.6335L57.8762 45.6341ZM28.5043 45.6341V38.1325C28.5043 37.0679 27.6332 36.2021 26.5626 36.2021C26.0507 36.2023 25.5599 36.4057 25.198 36.7677C24.8361 37.1297 24.6328 37.6206 24.6328 38.1325V48.4044C24.6328 49.8249 25.1439 51.1969 26.0611 52.2682L32.4669 59.0706C33.102 59.6691 33.2584 60.1987 33.2584 61.0016V62.2399H40.2303L40.2381 59.2935C40.2381 58.1713 40.3298 56.6717 38.9254 55.2003L30.7978 47.039C30.5144 46.7561 30.1322 46.5945 29.7318 46.5883C29.3314 46.5821 28.9444 46.7319 28.6525 47.006C28.3606 47.2801 28.1867 47.657 28.1677 48.0569C28.1486 48.4569 28.2859 48.8486 28.5505 49.1491L32.4711 53.3484C32.7251 53.6461 33.1553 54.2075 33.3686 54.8953C33.4842 55.2524 33.5166 55.6005 33.5232 56.0001H32.2614C32.2566 55.7155 32.2357 55.4866 32.1668 55.2746C32.0439 54.8779 31.7977 54.5209 31.6126 54.292L27.6332 49.925C27.1329 49.4205 26.8585 48.7669 26.8585 48.0809C26.8585 47.0492 27.4786 46.1014 28.5043 45.6341ZM43.9239 27.9966C44.3629 27.9966 44.784 27.8222 45.0944 27.5117C45.4049 27.2013 45.5793 26.7802 45.5793 26.3412C45.5793 25.9022 45.4049 25.4811 45.0944 25.1707C44.784 24.8602 44.3629 24.6858 43.9239 24.6858C43.4849 24.6858 43.0638 24.8602 42.7534 25.1707C42.4429 25.4811 42.2685 25.9022 42.2685 26.3412C42.2685 26.7802 42.4429 27.2013 42.7534 27.5117C43.0638 27.8222 43.4849 27.9966 43.9239 27.9966ZM34.9449 28.0056C34.7252 28.0065 34.5075 27.9641 34.3042 27.8809C34.101 27.7977 33.9161 27.6752 33.7602 27.5204C33.6043 27.3657 33.4804 27.1817 33.3956 26.9791C33.3108 26.7764 33.2669 26.5591 33.2661 26.3394C33.2669 26.1198 33.311 25.9025 33.3958 25.6999C33.4806 25.4973 33.6045 25.3134 33.7604 25.1588C33.9163 25.0041 34.1011 24.8816 34.3044 24.7984C34.5076 24.7152 34.7253 24.6729 34.9449 24.6738C35.8723 24.6738 36.626 25.4192 36.626 26.3394C36.626 27.2614 35.8723 28.0056 34.9449 28.0056ZM52.1468 34.3946C52.2993 34.3945 52.4503 34.3644 52.5911 34.306C52.732 34.2475 52.8599 34.162 52.9677 34.0541C53.0755 33.9462 53.1609 33.8182 53.2192 33.6773C53.2775 33.5364 53.3074 33.3854 53.3073 33.2329C53.3073 33.0804 53.2772 32.9294 53.2187 32.7886C53.1603 32.6478 53.0747 32.5198 52.9668 32.412C52.859 32.3043 52.7309 32.2188 52.59 32.1605C52.4491 32.1023 52.2981 32.0723 52.1456 32.0724C51.8377 32.0725 51.5424 32.195 51.3248 32.4129C51.1072 32.6308 50.985 32.9261 50.9851 33.2341C50.9853 33.542 51.1078 33.8373 51.3257 34.0549C51.5435 34.2726 51.8389 34.3947 52.1468 34.3946Z" fill="#065B82"/>
<path d="M53.8284 34.9693H50.6968C50.6824 34.9693 49.6489 34.8752 49.6489 34.8752L48.3374 30.3039C47.8096 28.4634 46.2663 28.5197 46.2663 28.5197H42.0209C42.0209 28.5197 40.4788 28.4634 39.9509 30.3039L39.3033 32.5548L38.6574 30.3039C38.1266 28.4634 36.5875 28.5197 36.5875 28.5197H33.3025C33.3025 28.5197 31.7592 28.4634 31.2313 30.3039L29.9091 34.9105C29.7833 35.3419 30.0193 35.669 30.3968 35.7781C30.773 35.8853 31.1582 35.6954 31.2547 35.3521L32.5428 30.8617L33.1701 30.8605L31.29 38.6353H32.9514V44.158C32.9514 44.6127 33.3181 44.983 33.774 44.983C34.2287 44.983 34.6008 44.6127 34.6008 44.158V38.6353H35.2976V44.158C35.2976 44.6127 35.6648 44.983 36.1196 44.983C36.3387 44.9833 36.5491 44.8966 36.7043 44.7419C36.8596 44.5872 36.9471 44.3772 36.9475 44.158V38.6353H38.5801L36.7199 30.8605L37.3448 30.8617L38.6185 35.3048C38.6395 35.3809 38.6736 35.4504 38.7179 35.5103C38.8426 35.699 39.06 35.8032 39.3021 35.7954C39.5441 35.8032 39.7604 35.6996 39.885 35.5139C39.937 35.4459 39.974 35.3677 39.9935 35.2844L41.2606 30.8611L41.8382 30.8599V43.9974C41.8382 44.5342 42.2773 44.968 42.8129 44.968C43.3492 44.968 43.7835 44.5342 43.7835 43.9974V36.5228H44.5013V43.9974C44.5013 44.5342 44.9362 44.968 45.4706 44.968C46.0081 44.968 46.4484 44.5342 46.4484 43.9974V30.8599L47.0763 30.8611L48.3093 35.3515C48.3764 35.5726 48.5609 35.7188 48.782 35.7751C48.7916 35.7775 48.7964 35.7817 48.8041 35.7841C49.0007 35.8284 49.9065 36.0854 50.5716 36.2753V44.4234C50.5789 44.5996 50.6541 44.7661 50.7814 44.8882C50.9087 45.0102 51.0782 45.0784 51.2546 45.0784C51.4309 45.0784 51.6004 45.0102 51.7277 44.8882C51.855 44.7661 51.9302 44.5996 51.9376 44.4234V40.353H52.472V44.4234C52.472 44.7996 52.7769 45.1046 53.1532 45.1046C53.5294 45.1046 53.8386 44.7996 53.8386 44.4234V36.8122H54.3628V39.3908C54.3628 39.6742 54.5923 39.9018 54.8708 39.9018C54.9375 39.9015 55.0033 39.888 55.0647 39.8621C55.1261 39.8362 55.1817 39.7984 55.2284 39.7509C55.275 39.7034 55.3118 39.6471 55.3366 39.5853C55.3615 39.5235 55.3738 39.4574 55.3729 39.3908V36.4575C55.3741 35.6361 54.651 34.9693 53.8296 34.9693H53.8284Z" fill="#065B82"/>
</g>
<rect x="7.00391" y="7.5" width="72" height="72" rx="36" fill="#5891AB"/>
<g clip-path="url(#clip1_847_4847)">
<path d="M57.6731 45.4349V37.9333C57.6731 36.8686 58.5442 36.0029 59.6149 36.0029C60.1267 36.0031 60.6176 36.2065 60.9795 36.5685C61.3413 36.9305 61.5446 37.4214 61.5446 37.9333V48.2052C61.5443 49.6221 61.038 50.9923 60.1169 52.0689L53.7117 58.8714C53.0761 59.4699 52.9203 59.9995 52.9203 60.8023V62.0407H45.9483L45.9405 59.0942C45.9405 57.9721 45.8489 56.4725 47.2532 55.001L55.3809 46.8398C55.6642 46.5569 56.0465 46.3952 56.4468 46.3891C56.8472 46.3829 57.2343 46.5327 57.5262 46.8068C57.8181 47.0809 57.9919 47.4578 58.011 47.8577C58.03 48.2577 57.8927 48.6494 57.6282 48.9499L53.7081 53.1492C53.4541 53.4469 53.0239 54.0083 52.8106 54.6961C52.6956 55.0532 52.6627 55.4013 52.6561 55.8009H53.9178C53.9226 55.5163 53.9442 55.2874 54.0119 55.0753C54.1353 54.6787 54.3809 54.3216 54.5661 54.0928L58.5454 49.7252C59.0457 49.2207 59.3201 48.5677 59.3201 47.8811C59.3201 46.85 58.7 45.9016 57.6743 45.4343L57.6731 45.4349ZM28.3012 45.4349V37.9333C28.3012 36.8686 27.4301 36.0029 26.3595 36.0029C25.8476 36.0031 25.3568 36.2065 24.9949 36.5685C24.633 36.9305 24.4297 37.4214 24.4297 37.9333V48.2052C24.4297 49.6257 24.9407 50.9977 25.858 52.0689L32.2638 58.8714C32.8989 59.4699 33.0552 59.9995 33.0552 60.8023V62.0407H40.0272L40.035 59.0942C40.035 57.9721 40.1267 56.4725 38.7223 55.001L30.5946 46.8398C30.3113 46.5569 29.929 46.3952 29.5287 46.3891C29.1283 46.3829 28.7413 46.5327 28.4493 46.8068C28.1574 47.0809 27.9836 47.4578 27.9646 47.8577C27.9455 48.2577 28.0828 48.6494 28.3473 48.9499L32.268 53.1492C32.522 53.4469 32.9522 54.0083 33.1655 54.6961C33.2811 55.0532 33.3135 55.4013 33.32 55.8009H32.0583C32.0535 55.5163 32.0325 55.2874 31.9636 55.0753C31.8408 54.6787 31.5946 54.3216 31.4094 54.0928L27.4301 49.7258C26.9298 49.2213 26.6554 48.5677 26.6554 47.8817C26.6554 46.85 27.2755 45.9022 28.3012 45.4349ZM43.7208 27.7974C44.1598 27.7974 44.5809 27.6229 44.8913 27.3125C45.2017 27.0021 45.3762 26.581 45.3762 26.142C45.3762 25.7029 45.2017 25.2819 44.8913 24.9715C44.5809 24.661 44.1598 24.4866 43.7208 24.4866C43.2818 24.4866 42.8607 24.661 42.5503 24.9715C42.2398 25.2819 42.0654 25.7029 42.0654 26.142C42.0654 26.581 42.2398 27.0021 42.5503 27.3125C42.8607 27.6229 43.2818 27.7974 43.7208 27.7974ZM34.7418 27.8063C34.5221 27.8073 34.3044 27.7649 34.1011 27.6817C33.8978 27.5984 33.713 27.4759 33.5571 27.3212C33.4011 27.1665 33.2773 26.9825 33.1925 26.7799C33.1077 26.5772 33.0637 26.3598 33.063 26.1402C33.0638 25.9206 33.1079 25.7033 33.1927 25.5007C33.2775 25.2981 33.4014 25.1142 33.5573 24.9595C33.7132 24.8049 33.898 24.6824 34.1013 24.5992C34.3045 24.516 34.5221 24.4737 34.7418 24.4746C35.6692 24.4746 36.4229 25.2199 36.4229 26.1402C36.4229 27.0622 35.6692 27.8063 34.7418 27.8063ZM51.9437 34.1954C52.0962 34.1953 52.2472 34.1652 52.388 34.1068C52.5288 34.0483 52.6568 33.9627 52.7646 33.8549C52.8723 33.747 52.9578 33.6189 53.0161 33.478C53.0743 33.3371 53.1043 33.1861 53.1042 33.0337C53.1041 32.8812 53.074 32.7302 53.0156 32.5894C52.9572 32.4485 52.8716 32.3206 52.7637 32.2128C52.6558 32.1051 52.5278 32.0196 52.3869 31.9613C52.246 31.903 52.095 31.8731 51.9425 31.8732C51.6346 31.8733 51.3393 31.9958 51.1217 32.2137C50.904 32.4315 50.7819 32.7269 50.782 33.0349C50.7822 33.3428 50.9047 33.6381 51.1225 33.8557C51.3404 34.0733 51.6358 34.1955 51.9437 34.1954Z" fill="#E6EFF3"/>
<path d="M53.6292 34.77H50.4976C50.4832 34.77 49.4497 34.676 49.4497 34.676L48.1382 30.1047C47.6104 28.2642 46.0671 28.3205 46.0671 28.3205H41.8217C41.8217 28.3205 40.2795 28.2642 39.7517 30.1047L39.1041 32.3556L38.4582 30.1047C37.9274 28.2642 36.3883 28.3205 36.3883 28.3205H33.1033C33.1033 28.3205 31.5599 28.2642 31.0321 30.1047L29.7099 34.7113C29.584 35.1427 29.8201 35.4698 30.1975 35.5789C30.5738 35.6861 30.959 35.4962 31.0555 35.1529L32.3436 30.6625L32.9709 30.6613L31.0908 38.4361H32.7522V43.9588C32.7522 44.4135 33.1188 44.7837 33.5748 44.7837C34.0295 44.7837 34.4016 44.4135 34.4016 43.9588V38.4361H35.0983V43.9588C35.0983 44.4135 35.4656 44.7837 35.9203 44.7837C36.1395 44.7841 36.3498 44.6973 36.5051 44.5426C36.6604 44.3879 36.7478 44.1779 36.7483 43.9588V38.4361H38.3809L36.5207 30.6613L37.1455 30.6625L38.4193 35.1055C38.4402 35.1816 38.4744 35.2511 38.5187 35.311C38.6433 35.4998 38.8608 35.604 39.1029 35.5962C39.3449 35.604 39.5612 35.5004 39.6858 35.3146C39.7378 35.2467 39.7747 35.1685 39.7943 35.0852L41.0614 30.6619L41.639 30.6607V43.7982C41.639 44.335 42.0781 44.7688 42.6137 44.7688C43.1499 44.7688 43.5843 44.335 43.5843 43.7982V36.3236H44.302V43.7982C44.302 44.335 44.737 44.7688 45.2714 44.7688C45.8088 44.7688 46.2492 44.335 46.2492 43.7982V30.6607L46.8771 30.6619L48.1101 35.1523C48.1772 35.3734 48.3617 35.5195 48.5828 35.5759C48.5924 35.5783 48.5971 35.5824 48.6049 35.5848C48.8014 35.6292 49.7073 35.8862 50.3723 36.0761V44.2242C50.3797 44.4004 50.4549 44.5669 50.5822 44.6889C50.7095 44.811 50.879 44.8792 51.0553 44.8792C51.2317 44.8792 51.4012 44.811 51.5285 44.6889C51.6558 44.5669 51.731 44.4004 51.7383 44.2242V40.1537H52.2728V44.2242C52.2728 44.6004 52.5777 44.9054 52.954 44.9054C53.3302 44.9054 53.6393 44.6004 53.6393 44.2242V36.6129H54.1636V39.1916C54.1636 39.4749 54.393 39.7026 54.6716 39.7026C54.7382 39.7023 54.8041 39.6888 54.8655 39.6629C54.9268 39.637 54.9825 39.5992 55.0291 39.5517C55.0758 39.5042 55.1126 39.4479 55.1374 39.3861C55.1622 39.3243 55.1746 39.2582 55.1737 39.1916V36.2583C55.1749 35.4369 54.4518 34.77 53.6304 34.77H53.6292Z" fill="#E6EFF3"/>
</g>
<rect x="15.5039" y="15.5" width="55" height="56" rx="27.5" fill="#387C9B"/>
<g clip-path="url(#clip2_847_4847)">
<path d="M58.1731 45.4349V37.9333C58.1731 36.8686 59.0442 36.0029 60.1149 36.0029C60.6267 36.0031 61.1176 36.2065 61.4795 36.5685C61.8413 36.9305 62.0446 37.4214 62.0446 37.9333V48.2052C62.0443 49.6221 61.538 50.9923 60.6169 52.0689L54.2117 58.8714C53.5761 59.4699 53.4203 59.9995 53.4203 60.8023V62.0407H46.4483L46.4405 59.0942C46.4405 57.9721 46.3489 56.4725 47.7532 55.001L55.8809 46.8398C56.1642 46.5569 56.5465 46.3952 56.9468 46.3891C57.3472 46.3829 57.7343 46.5327 58.0262 46.8068C58.3181 47.0809 58.4919 47.4578 58.511 47.8577C58.53 48.2577 58.3927 48.6494 58.1282 48.9499L54.2081 53.1492C53.9541 53.4469 53.5239 54.0083 53.3106 54.6961C53.1956 55.0532 53.1627 55.4013 53.1561 55.8009H54.4178C54.4226 55.5163 54.4442 55.2874 54.5119 55.0753C54.6353 54.6787 54.8809 54.3216 55.0661 54.0928L59.0454 49.7252C59.5457 49.2207 59.8201 48.5677 59.8201 47.8811C59.8201 46.85 59.2 45.9016 58.1743 45.4343L58.1731 45.4349ZM28.8012 45.4349V37.9333C28.8012 36.8686 27.9301 36.0029 26.8595 36.0029C26.3476 36.0031 25.8568 36.2065 25.4949 36.5685C25.133 36.9305 24.9297 37.4214 24.9297 37.9333V48.2052C24.9297 49.6257 25.4407 50.9977 26.358 52.0689L32.7638 58.8714C33.3989 59.4699 33.5552 59.9995 33.5552 60.8023V62.0407H40.5272L40.535 59.0942C40.535 57.9721 40.6267 56.4725 39.2223 55.001L31.0946 46.8398C30.8113 46.5569 30.429 46.3952 30.0287 46.3891C29.6283 46.3829 29.2413 46.5327 28.9493 46.8068C28.6574 47.0809 28.4836 47.4578 28.4646 47.8577C28.4455 48.2577 28.5828 48.6494 28.8473 48.9499L32.768 53.1492C33.022 53.4469 33.4522 54.0083 33.6655 54.6961C33.7811 55.0532 33.8135 55.4013 33.82 55.8009H32.5583C32.5535 55.5163 32.5325 55.2874 32.4636 55.0753C32.3408 54.6787 32.0946 54.3216 31.9094 54.0928L27.9301 49.7258C27.4298 49.2213 27.1554 48.5677 27.1554 47.8817C27.1554 46.85 27.7755 45.9022 28.8012 45.4349ZM44.2208 27.7974C44.6598 27.7974 45.0809 27.6229 45.3913 27.3125C45.7017 27.0021 45.8762 26.581 45.8762 26.142C45.8762 25.7029 45.7017 25.2819 45.3913 24.9715C45.0809 24.661 44.6598 24.4866 44.2208 24.4866C43.7818 24.4866 43.3607 24.661 43.0503 24.9715C42.7398 25.2819 42.5654 25.7029 42.5654 26.142C42.5654 26.581 42.7398 27.0021 43.0503 27.3125C43.3607 27.6229 43.7818 27.7974 44.2208 27.7974ZM35.2418 27.8063C35.0221 27.8073 34.8044 27.7649 34.6011 27.6817C34.3978 27.5984 34.213 27.4759 34.0571 27.3212C33.9011 27.1665 33.7773 26.9825 33.6925 26.7799C33.6077 26.5772 33.5637 26.3598 33.563 26.1402C33.5638 25.9206 33.6079 25.7033 33.6927 25.5007C33.7775 25.2981 33.9014 25.1142 34.0573 24.9595C34.2132 24.8049 34.398 24.6824 34.6013 24.5992C34.8045 24.516 35.0221 24.4737 35.2418 24.4746C36.1692 24.4746 36.9229 25.2199 36.9229 26.1402C36.9229 27.0622 36.1692 27.8063 35.2418 27.8063ZM52.4437 34.1954C52.5962 34.1953 52.7472 34.1652 52.888 34.1068C53.0288 34.0483 53.1568 33.9627 53.2646 33.8549C53.3723 33.747 53.4578 33.6189 53.5161 33.478C53.5743 33.3371 53.6043 33.1861 53.6042 33.0337C53.6041 32.8812 53.574 32.7302 53.5156 32.5894C53.4572 32.4485 53.3716 32.3206 53.2637 32.2128C53.1558 32.1051 53.0278 32.0196 52.8869 31.9613C52.746 31.903 52.595 31.8731 52.4425 31.8732C52.1346 31.8733 51.8393 31.9958 51.6217 32.2137C51.404 32.4315 51.2819 32.7269 51.282 33.0349C51.2822 33.3428 51.4047 33.6381 51.6225 33.8557C51.8404 34.0733 52.1358 34.1955 52.4437 34.1954Z" fill="#E6EFF3"/>
<path d="M54.1292 34.77H50.9976C50.9832 34.77 49.9497 34.676 49.9497 34.676L48.6382 30.1047C48.1104 28.2642 46.5671 28.3205 46.5671 28.3205H42.3217C42.3217 28.3205 40.7795 28.2642 40.2517 30.1047L39.6041 32.3556L38.9582 30.1047C38.4274 28.2642 36.8883 28.3205 36.8883 28.3205H33.6033C33.6033 28.3205 32.0599 28.2642 31.5321 30.1047L30.2099 34.7113C30.084 35.1427 30.3201 35.4698 30.6975 35.5789C31.0738 35.6861 31.459 35.4962 31.5555 35.1529L32.8436 30.6625L33.4709 30.6613L31.5908 38.4361H33.2522V43.9588C33.2522 44.4135 33.6188 44.7837 34.0748 44.7837C34.5295 44.7837 34.9016 44.4135 34.9016 43.9588V38.4361H35.5983V43.9588C35.5983 44.4135 35.9656 44.7837 36.4203 44.7837C36.6395 44.7841 36.8498 44.6973 37.0051 44.5426C37.1604 44.3879 37.2478 44.1779 37.2483 43.9588V38.4361H38.8809L37.0207 30.6613L37.6455 30.6625L38.9193 35.1055C38.9402 35.1816 38.9744 35.2511 39.0187 35.311C39.1433 35.4998 39.3608 35.604 39.6029 35.5962C39.8449 35.604 40.0612 35.5004 40.1858 35.3146C40.2378 35.2467 40.2747 35.1685 40.2943 35.0852L41.5614 30.6619L42.139 30.6607V43.7982C42.139 44.335 42.5781 44.7688 43.1137 44.7688C43.6499 44.7688 44.0843 44.335 44.0843 43.7982V36.3236H44.802V43.7982C44.802 44.335 45.237 44.7688 45.7714 44.7688C46.3088 44.7688 46.7492 44.335 46.7492 43.7982V30.6607L47.3771 30.6619L48.6101 35.1523C48.6772 35.3734 48.8617 35.5195 49.0828 35.5759C49.0924 35.5783 49.0971 35.5824 49.1049 35.5848C49.3014 35.6292 50.2073 35.8862 50.8723 36.0761V44.2242C50.8797 44.4004 50.9549 44.5669 51.0822 44.6889C51.2095 44.811 51.379 44.8792 51.5553 44.8792C51.7317 44.8792 51.9012 44.811 52.0285 44.6889C52.1558 44.5669 52.231 44.4004 52.2383 44.2242V40.1537H52.7728V44.2242C52.7728 44.6004 53.0777 44.9054 53.454 44.9054C53.8302 44.9054 54.1393 44.6004 54.1393 44.2242V36.6129H54.6636V39.1916C54.6636 39.4749 54.893 39.7026 55.1716 39.7026C55.2382 39.7023 55.3041 39.6888 55.3655 39.6629C55.4268 39.637 55.4825 39.5992 55.5291 39.5517C55.5758 39.5042 55.6126 39.4479 55.6374 39.3861C55.6622 39.3243 55.6746 39.2582 55.6737 39.1916V36.2583C55.6749 35.4369 54.9518 34.77 54.1304 34.77H54.1292Z" fill="#E6EFF3"/>
</g>
<defs>
<clipPath id="clip0_847_4847">
<rect width="38.3438" height="38.3438" fill="white" transform="translate(23.832 24.3281)"/>
</clipPath>
<clipPath id="clip1_847_4847">
<rect width="38.3438" height="38.3438" fill="white" transform="translate(23.6328 24.1289)"/>
</clipPath>
<clipPath id="clip2_847_4847">
<rect width="38.3438" height="38.3438" fill="white" transform="translate(24.1328 24.1289)"/>
</clipPath>
</defs>
</svg>
