<svg width="89" height="88" viewBox="0 0 89 88" fill="none" xmlns="http://www.w3.org/2000/svg">
<rect x="0.867188" y="0.199219" width="87.6" height="87.6" rx="43.8" fill="#F8B1DB"/>
<path fill-rule="evenodd" clip-rule="evenodd" d="M25.9727 25.3047V54.387H49.225V52.3097H28.05V27.382H56.0937V29.5839H58.171V25.3047H25.9727ZM58.171 35.6912C58.171 36.2422 57.9521 36.7706 57.5626 37.1601C57.173 37.5497 56.6446 37.7686 56.0937 37.7686C55.5427 37.7686 55.0144 37.5497 54.6248 37.1601C54.2352 36.7706 54.0164 36.2422 54.0164 35.6912C54.0164 35.1403 54.2352 34.6119 54.6248 34.2224C55.0144 33.8328 55.5427 33.6139 56.0937 33.6139C56.6446 33.6139 57.173 33.8328 57.5626 34.2224C57.9521 34.6119 58.171 35.1403 58.171 35.6912ZM60.2483 35.6912C60.2483 36.7931 59.8106 37.8499 59.0314 38.629C58.2523 39.4081 57.1955 39.8459 56.0937 39.8459C54.9918 39.8459 53.9351 39.4081 53.1559 38.629C52.3768 37.8499 51.939 36.7931 51.939 35.6912C51.939 34.5894 52.3768 33.5326 53.1559 32.7535C53.9351 31.9743 54.9918 31.5366 56.0937 31.5366C57.1955 31.5366 58.2523 31.9743 59.0314 32.7535C59.8106 33.5326 60.2483 34.5894 60.2483 35.6912Z" fill="#EE35A3"/>
<path fill-rule="evenodd" clip-rule="evenodd" d="M50.9955 41.7468C51.5748 41.1939 52.3447 40.8852 53.1456 40.8848H57.3854C58.9059 40.8848 60.3216 41.402 61.4122 42.4324C62.4613 43.4232 63.0076 44.6935 63.2309 45.8973C63.582 47.7897 63.2184 49.8577 62.3242 51.6909V60.0999C62.3242 60.7515 62.0792 61.3793 61.6379 61.8587C61.1965 62.3381 60.5911 62.634 59.9417 62.6878C59.2923 62.7415 58.6464 62.5492 58.1323 62.1488C57.6181 61.7485 57.2733 61.1695 57.1662 60.5268L56.6116 57.1989L56.0569 60.5268C55.9498 61.1695 55.605 61.7485 55.0908 62.1488C54.5767 62.5492 53.9308 62.7415 53.2814 62.6878C52.632 62.634 52.0266 62.3381 51.5852 61.8587C51.1439 61.3793 50.8989 60.7515 50.899 60.0999V50.3293C50.4253 50.6028 49.8879 50.7468 49.341 50.7468H44.0417C43.2153 50.7468 42.4228 50.4185 41.8384 49.8342C41.2541 49.2498 40.9258 48.4572 40.9258 47.6308C40.9258 46.8044 41.2541 46.0119 41.8384 45.4275C42.4228 44.8432 43.2153 44.5149 44.0417 44.5149H48.0925L50.9955 41.7468ZM52.9763 53.842V60.0999C52.9766 60.23 53.0258 60.3552 53.114 60.4508C53.2023 60.5464 53.3232 60.6053 53.4529 60.616C53.5825 60.6268 53.7114 60.5884 53.8142 60.5086C53.9169 60.4288 53.986 60.3133 54.0076 60.1851L55.091 53.6872C55.1313 53.4447 55.2563 53.2243 55.4439 53.0654C55.6314 52.9064 55.8692 52.819 56.1151 52.8189H57.108C57.3539 52.819 57.5917 52.9064 57.7793 53.0654C57.9668 53.2243 58.0918 53.4447 58.1322 53.6872L59.2155 60.1851C59.2372 60.3133 59.3062 60.4288 59.4089 60.5086C59.5117 60.5884 59.6406 60.6268 59.7703 60.616C59.8999 60.6053 60.0208 60.5464 60.1091 60.4508C60.1973 60.3552 60.2465 60.23 60.2469 60.0999V51.4448C60.2468 51.2785 60.2867 51.1146 60.3632 50.967C61.165 49.4184 61.4569 47.7222 61.1889 46.2764C61.0258 45.3977 60.6447 44.5647 59.9862 43.9426C59.3141 43.3079 58.423 42.9621 57.3854 42.9621H53.1466C52.8797 42.9621 52.6221 43.0649 52.4289 43.2487L49.2257 46.3045C49.0326 46.4889 48.776 46.592 48.509 46.5922H44.0417C43.7663 46.5922 43.5021 46.7016 43.3073 46.8964C43.1125 47.0912 43.0031 47.3554 43.0031 47.6308C43.0031 47.9063 43.1125 48.1705 43.3073 48.3653C43.5021 48.5601 43.7663 48.6695 44.0417 48.6695H49.341C49.608 48.6693 49.8646 48.5662 50.0576 48.3818L51.2209 47.2725C51.3681 47.1322 51.5532 47.0382 51.7533 47.0021C51.9534 46.966 52.1597 46.9895 52.3466 47.0696C52.5335 47.1496 52.6928 47.2828 52.8047 47.4525C52.9167 47.6223 52.9763 47.8212 52.9763 48.0245V53.842Z" fill="#EE35A3"/>
<rect x="7.16797" y="7" width="75" height="74" rx="37" fill="#F58BCA"/>
<path fill-rule="evenodd" clip-rule="evenodd" d="M26.2734 25.1055V54.1878H49.5258V52.1105H28.3507V27.1828H56.3945V29.3847H58.4718V25.1055H26.2734ZM58.4718 35.492C58.4718 36.043 58.2529 36.5713 57.8633 36.9609C57.4738 37.3505 56.9454 37.5693 56.3945 37.5693C55.8435 37.5693 55.3151 37.3505 54.9256 36.9609C54.536 36.5713 54.3171 36.043 54.3171 35.492C54.3171 34.9411 54.536 34.4127 54.9256 34.0231C55.3151 33.6336 55.8435 33.4147 56.3945 33.4147C56.9454 33.4147 57.4738 33.6336 57.8633 34.0231C58.2529 34.4127 58.4718 34.9411 58.4718 35.492ZM60.5491 35.492C60.5491 36.5939 60.1114 37.6506 59.3322 38.4298C58.5531 39.2089 57.4963 39.6466 56.3945 39.6466C55.2926 39.6466 54.2358 39.2089 53.4567 38.4298C52.6775 37.6506 52.2398 36.5939 52.2398 35.492C52.2398 34.3902 52.6775 33.3334 53.4567 32.5543C54.2358 31.7751 55.2926 31.3374 56.3945 31.3374C57.4963 31.3374 58.5531 31.7751 59.3322 32.5543C60.1114 33.3334 60.5491 34.3902 60.5491 35.492Z" fill="#FDE6F4"/>
<path fill-rule="evenodd" clip-rule="evenodd" d="M51.2963 41.5476C51.8756 40.9947 52.6455 40.6859 53.4463 40.6855H57.6861C59.2067 40.6855 60.6224 41.2028 61.713 42.2331C62.762 43.224 63.3084 44.4943 63.5317 45.6981C63.8828 47.5905 63.5192 49.6585 62.6249 51.4917V59.9007C62.625 60.5523 62.38 61.1801 61.9387 61.6595C61.4973 62.1389 60.8919 62.4348 60.2425 62.4886C59.5931 62.5423 58.9472 62.3499 58.4331 61.9496C57.9189 61.5493 57.5741 60.9703 57.467 60.3276L56.9123 56.9997L56.3577 60.3276C56.2506 60.9703 55.9058 61.5493 55.3916 61.9496C54.8775 62.3499 54.2316 62.5423 53.5822 62.4886C52.9328 62.4348 52.3274 62.1389 51.886 61.6595C51.4447 61.1801 51.1997 60.5523 51.1997 59.9007V50.13C50.7261 50.4036 50.1887 50.5476 49.6417 50.5476H44.3425C43.5161 50.5476 42.7236 50.2193 42.1392 49.6349C41.5549 49.0506 41.2266 48.258 41.2266 47.4316C41.2266 46.6052 41.5549 45.8127 42.1392 45.2283C42.7236 44.6439 43.5161 44.3156 44.3425 44.3156H48.3933L51.2963 41.5476ZM53.277 53.6428V59.9007C53.2774 60.0308 53.3266 60.156 53.4148 60.2516C53.5031 60.3471 53.624 60.4061 53.7536 60.4168C53.8833 60.4275 54.0122 60.3892 54.115 60.3094C54.2177 60.2296 54.2867 60.1141 54.3084 59.9858L55.3917 53.488C55.4321 53.2455 55.5571 53.0251 55.7446 52.8661C55.9322 52.7071 56.17 52.6198 56.4159 52.6197H57.4088C57.6547 52.6198 57.8925 52.7071 58.08 52.8661C58.2676 53.0251 58.3926 53.2455 58.4329 53.488L59.5162 59.9858C59.5379 60.1141 59.607 60.2296 59.7097 60.3094C59.8124 60.3892 59.9414 60.4275 60.071 60.4168C60.2007 60.4061 60.3216 60.3471 60.4099 60.2516C60.4981 60.156 60.5473 60.0308 60.5476 59.9007V51.2456C60.5476 51.0793 60.5875 50.9154 60.664 50.7678C61.4658 49.2191 61.7577 47.523 61.4897 46.0772C61.3266 45.1985 60.9454 44.3655 60.2869 43.7433C59.6149 43.1087 58.7238 42.7629 57.6861 42.7629H53.4474C53.1805 42.7629 52.9229 42.8657 52.7297 43.0495L49.5265 46.1053C49.3334 46.2897 49.0768 46.3927 48.8098 46.393H44.3425C44.0671 46.393 43.8029 46.5024 43.6081 46.6972C43.4133 46.892 43.3039 47.1561 43.3039 47.4316C43.3039 47.7071 43.4133 47.9713 43.6081 48.1661C43.8029 48.3608 44.0671 48.4703 44.3425 48.4703H49.6417C49.9087 48.47 50.1654 48.367 50.3584 48.1826L51.5217 47.0733C51.6689 46.933 51.854 46.839 52.0541 46.8029C52.2542 46.7668 52.4605 46.7903 52.6474 46.8703C52.8343 46.9504 52.9936 47.0836 53.1055 47.2533C53.2174 47.4231 53.2771 47.6219 53.277 47.8253V53.6428Z" fill="#FDE6F4"/>
<rect x="13.168" y="13" width="63" height="62" rx="31" fill="#F155B2"/>
<path fill-rule="evenodd" clip-rule="evenodd" d="M26.2734 25.1055V54.1878H49.5258V52.1105H28.3507V27.1828H56.3945V29.3847H58.4718V25.1055H26.2734ZM58.4718 35.492C58.4718 36.043 58.2529 36.5713 57.8633 36.9609C57.4738 37.3505 56.9454 37.5693 56.3945 37.5693C55.8435 37.5693 55.3151 37.3505 54.9256 36.9609C54.536 36.5713 54.3171 36.043 54.3171 35.492C54.3171 34.9411 54.536 34.4127 54.9256 34.0231C55.3151 33.6336 55.8435 33.4147 56.3945 33.4147C56.9454 33.4147 57.4738 33.6336 57.8633 34.0231C58.2529 34.4127 58.4718 34.9411 58.4718 35.492ZM60.5491 35.492C60.5491 36.5939 60.1114 37.6506 59.3322 38.4298C58.5531 39.2089 57.4963 39.6466 56.3945 39.6466C55.2926 39.6466 54.2358 39.2089 53.4567 38.4298C52.6775 37.6506 52.2398 36.5939 52.2398 35.492C52.2398 34.3902 52.6775 33.3334 53.4567 32.5543C54.2358 31.7751 55.2926 31.3374 56.3945 31.3374C57.4963 31.3374 58.5531 31.7751 59.3322 32.5543C60.1114 33.3334 60.5491 34.3902 60.5491 35.492Z" fill="#FDE6F4"/>
<path fill-rule="evenodd" clip-rule="evenodd" d="M51.2963 41.5476C51.8756 40.9947 52.6455 40.6859 53.4463 40.6855H57.6861C59.2067 40.6855 60.6224 41.2028 61.713 42.2331C62.762 43.224 63.3084 44.4943 63.5317 45.6981C63.8828 47.5905 63.5192 49.6585 62.6249 51.4917V59.9007C62.625 60.5523 62.38 61.1801 61.9387 61.6595C61.4973 62.1389 60.8919 62.4348 60.2425 62.4886C59.5931 62.5423 58.9472 62.3499 58.4331 61.9496C57.9189 61.5493 57.5741 60.9703 57.467 60.3276L56.9123 56.9997L56.3577 60.3276C56.2506 60.9703 55.9058 61.5493 55.3916 61.9496C54.8775 62.3499 54.2316 62.5423 53.5822 62.4886C52.9328 62.4348 52.3274 62.1389 51.886 61.6595C51.4447 61.1801 51.1997 60.5523 51.1997 59.9007V50.13C50.7261 50.4036 50.1887 50.5476 49.6417 50.5476H44.3425C43.5161 50.5476 42.7236 50.2193 42.1392 49.6349C41.5549 49.0506 41.2266 48.258 41.2266 47.4316C41.2266 46.6052 41.5549 45.8127 42.1392 45.2283C42.7236 44.6439 43.5161 44.3156 44.3425 44.3156H48.3933L51.2963 41.5476ZM53.277 53.6428V59.9007C53.2774 60.0308 53.3266 60.156 53.4148 60.2516C53.5031 60.3471 53.624 60.4061 53.7536 60.4168C53.8833 60.4275 54.0122 60.3892 54.115 60.3094C54.2177 60.2296 54.2867 60.1141 54.3084 59.9858L55.3917 53.488C55.4321 53.2455 55.5571 53.0251 55.7446 52.8661C55.9322 52.7071 56.17 52.6198 56.4159 52.6197H57.4088C57.6547 52.6198 57.8925 52.7071 58.08 52.8661C58.2676 53.0251 58.3926 53.2455 58.4329 53.488L59.5162 59.9858C59.5379 60.1141 59.607 60.2296 59.7097 60.3094C59.8124 60.3892 59.9414 60.4275 60.071 60.4168C60.2007 60.4061 60.3216 60.3471 60.4099 60.2516C60.4981 60.156 60.5473 60.0308 60.5476 59.9007V51.2456C60.5476 51.0793 60.5875 50.9154 60.664 50.7678C61.4658 49.2191 61.7577 47.523 61.4897 46.0772C61.3266 45.1985 60.9454 44.3655 60.2869 43.7433C59.6149 43.1087 58.7238 42.7629 57.6861 42.7629H53.4474C53.1805 42.7629 52.9229 42.8657 52.7297 43.0495L49.5265 46.1053C49.3334 46.2897 49.0768 46.3927 48.8098 46.393H44.3425C44.0671 46.393 43.8029 46.5024 43.6081 46.6972C43.4133 46.892 43.3039 47.1561 43.3039 47.4316C43.3039 47.7071 43.4133 47.9713 43.6081 48.1661C43.8029 48.3608 44.0671 48.4703 44.3425 48.4703H49.6417C49.9087 48.47 50.1654 48.367 50.3584 48.1826L51.5217 47.0733C51.6689 46.933 51.854 46.839 52.0541 46.8029C52.2542 46.7668 52.4605 46.7903 52.6474 46.8703C52.8343 46.9504 52.9936 47.0836 53.1055 47.2533C53.2174 47.4231 53.2771 47.6219 53.277 47.8253V53.6428Z" fill="#FDE6F4"/>
</svg>
