<svg width="24" height="24" viewBox="0 0 24 24" fill="none" xmlns="http://www.w3.org/2000/svg">
<g id="ph:club">
<path id="Vector" d="M17.2514 8.2496H17.0329C17.2663 7.46606 17.3134 6.63884 17.1706 5.83386C17.0278 5.02887 16.699 4.26836 16.2103 3.61293C15.7216 2.95749 15.0866 2.42524 14.3559 2.05858C13.6252 1.69191 12.8189 1.50098 12.0014 1.50098C11.1838 1.50098 10.3775 1.69191 9.64681 2.05858C8.91609 2.42524 8.28109 2.95749 7.79242 3.61293C7.30375 4.26836 6.9749 5.02887 6.83208 5.83386C6.68926 6.63884 6.73642 7.46606 6.96979 8.2496H6.75136C5.96181 8.24999 5.18251 8.42845 4.47148 8.7717C3.76045 9.11496 3.136 9.61416 2.64461 10.2322C2.15322 10.8502 1.80754 11.571 1.63332 12.3411C1.45909 13.1112 1.46081 13.9107 1.63833 14.68C1.81585 15.4493 2.16461 16.1687 2.65864 16.7846C3.15268 17.4005 3.77926 17.897 4.49176 18.2372C5.20425 18.5774 5.9843 18.7526 6.77385 18.7496C7.56339 18.7466 8.34209 18.5655 9.05198 18.2199L8.28323 20.784C8.24962 20.896 8.24265 21.0142 8.26288 21.1294C8.28311 21.2445 8.32998 21.3534 8.39975 21.4472C8.46951 21.541 8.56025 21.6172 8.6647 21.6697C8.76916 21.7222 8.88444 21.7496 9.00136 21.7496H15.0014C15.1183 21.7496 15.2336 21.7222 15.338 21.6697C15.4425 21.6172 15.5332 21.541 15.603 21.4472C15.6727 21.3534 15.7196 21.2445 15.7398 21.1294C15.7601 21.0142 15.7531 20.896 15.7195 20.784L14.9507 18.2199C15.6606 18.5655 16.4393 18.7466 17.2289 18.7496C18.0184 18.7526 18.7985 18.5774 19.511 18.2372C20.2234 17.897 20.85 17.4005 21.3441 16.7846C21.8381 16.1687 22.1869 15.4493 22.3644 14.68C22.5419 13.9107 22.5436 13.1112 22.3694 12.3411C22.1952 11.571 21.8495 10.8502 21.3581 10.2322C20.8667 9.61416 20.2423 9.11496 19.5312 8.7717C18.8202 8.42845 18.0409 8.24999 17.2514 8.2496ZM17.2514 17.2496C16.6305 17.2495 16.0194 17.0953 15.4729 16.8007C14.9264 16.5062 14.4616 16.0806 14.1201 15.5621C14.0206 15.4125 13.8708 15.3036 13.6978 15.2551C13.5248 15.2067 13.3402 15.2219 13.1775 15.2981C13.0148 15.3743 12.8849 15.5063 12.8113 15.6702C12.7377 15.8341 12.7254 16.019 12.7767 16.1912L13.9954 20.2468H10.011L11.2298 16.1912C11.2842 16.0178 11.2739 15.8305 11.2006 15.6642C11.1274 15.4979 10.9962 15.3638 10.8315 15.287C10.6669 15.2101 10.4799 15.1956 10.3054 15.2462C10.1308 15.2968 9.9806 15.4091 9.8826 15.5621C9.4951 16.149 8.95035 16.6151 8.31057 16.9072C7.67079 17.1993 6.96176 17.3056 6.26446 17.2139C5.56715 17.1223 4.90968 16.8364 4.36711 16.3889C3.82454 15.9414 3.41875 15.3503 3.19608 14.6832C2.97341 14.0161 2.94283 13.2998 3.10784 12.6161C3.27284 11.9324 3.62678 11.3089 4.12923 10.8168C4.63169 10.3247 5.26241 9.98383 5.94936 9.83308C6.63632 9.68232 7.35182 9.72779 8.01417 9.96429C8.1629 10.0175 8.32463 10.0223 8.47629 9.97818C8.62795 9.93403 8.7618 9.84312 8.85876 9.71842C8.95571 9.59372 9.01082 9.4416 9.01622 9.28373C9.02163 9.12587 8.97705 8.97033 8.88885 8.83929C8.50962 8.27496 8.29095 7.61813 8.25624 6.9391C8.22154 6.26006 8.3721 5.58437 8.69182 4.98431C9.01154 4.38425 9.48839 3.8824 10.0713 3.53247C10.6543 3.18253 11.3214 2.99768 12.0014 2.99768C12.6813 2.99768 13.3484 3.18253 13.9314 3.53247C14.5143 3.8824 14.9912 4.38425 15.3109 4.98431C15.6306 5.58437 15.7812 6.26006 15.7465 6.9391C15.7118 7.61813 15.4931 8.27496 15.1139 8.83929C15.0257 8.97033 14.9811 9.12587 14.9865 9.28373C14.9919 9.4416 15.047 9.59372 15.144 9.71842C15.2409 9.84312 15.3748 9.93403 15.5264 9.97818C15.6781 10.0223 15.8398 10.0175 15.9885 9.96429C16.5029 9.78233 17.0509 9.71481 17.5941 9.76646C18.1372 9.8181 18.6626 9.98766 19.1335 10.2633C19.6044 10.5389 20.0095 10.914 20.3205 11.3624C20.6314 11.8107 20.8408 12.3215 20.934 12.8592C21.0272 13.3968 21.0019 13.9483 20.86 14.4751C20.7181 15.002 20.4629 15.4915 20.1122 15.9096C19.7616 16.3276 19.3239 16.6641 18.8298 16.8955C18.3357 17.127 17.797 17.2478 17.2514 17.2496Z" fill="#EA028C"/>
</g>
</svg>
