<svg xmlns="http://www.w3.org/2000/svg" width="24" height="24" fill="none" viewBox="0 0 24 24"><g id="fluent:cube-tree-24-filled"><path id="Vector" fill="#EA028C" d="M11.764 2.03843C11.9179 1.98719 12.0842 1.98719 12.238 2.03843L15.988 3.28843C16.1375 3.33821 16.2675 3.43377 16.3595 3.56157C16.4516 3.68937 16.5011 3.84291 16.501 4.00043V9.00043C16.5011 9.15795 16.4516 9.31149 16.3595 9.43929C16.2675 9.56709 16.1375 9.66266 15.988 9.71243L12.751 10.7904V13.0004H14.501C15.0978 13.0004 15.6701 13.2375 16.092 13.6594C16.514 14.0814 16.751 14.6537 16.751 15.2504V16.0954C17.4567 16.2793 18.0713 16.7139 18.4799 17.3179C18.8885 17.922 19.0632 18.6541 18.9713 19.3776C18.8794 20.101 18.5273 20.7662 17.9806 21.2489C17.434 21.7316 16.7303 21.9988 16.001 22.0004C15.2707 22.0007 14.5653 21.7345 14.0172 21.2518C13.4691 20.769 13.1159 20.103 13.0239 19.3784C12.9319 18.6539 13.1073 17.9207 13.5174 17.3163C13.9274 16.7118 14.5438 16.2778 15.251 16.0954V15.2504C15.251 15.0515 15.172 14.8608 15.0314 14.7201C14.8907 14.5794 14.6999 14.5004 14.501 14.5004H9.50103C9.30211 14.5004 9.11135 14.5794 8.9707 14.7201C8.83004 14.8608 8.75103 15.0515 8.75103 15.2504V16.0954C9.45671 16.2793 10.0713 16.7139 10.4799 17.3179C10.8885 17.922 11.0632 18.6541 10.9713 19.3776C10.8794 20.101 10.5273 20.7662 9.98062 21.2489C9.43398 21.7316 8.73028 21.9988 8.00103 22.0004C7.27067 22.0007 6.5653 21.7345 6.01721 21.2518C5.46912 20.769 5.11594 20.103 5.02392 19.3784C4.93189 18.6539 5.10734 17.9207 5.51736 17.3163C5.92737 16.7118 6.54379 16.2778 7.25103 16.0954V15.2504C7.25103 14.6537 7.48808 14.0814 7.91004 13.6594C8.33199 13.2375 8.90429 13.0004 9.50103 13.0004H11.251V10.7904L8.01402 9.71343C7.86442 9.6636 7.73432 9.56789 7.64223 9.43989C7.55013 9.31189 7.50072 9.15812 7.50103 9.00043V4.00043C7.50094 3.84291 7.55044 3.68937 7.64252 3.56157C7.7346 3.43377 7.86458 3.33821 8.01402 3.28843L11.764 2.03843ZM9.78903 5.51343C9.75785 5.60693 9.7454 5.70566 9.7524 5.80397C9.75941 5.90228 9.78572 5.99825 9.82983 6.08638C9.87394 6.17452 9.935 6.2531 10.0095 6.31762C10.084 6.38215 10.1705 6.43135 10.264 6.46243L11.251 6.79143V7.75043C11.251 7.94934 11.33 8.14011 11.4707 8.28076C11.6113 8.42141 11.8021 8.50043 12.001 8.50043C12.1999 8.50043 12.3907 8.42141 12.5314 8.28076C12.672 8.14011 12.751 7.94934 12.751 7.75043V6.79043L13.738 6.46243C13.9269 6.39957 14.083 6.26428 14.1721 6.08631C14.2611 5.90833 14.2759 5.70226 14.213 5.51343C14.1502 5.3246 14.0149 5.16847 13.8369 5.07939C13.6589 4.99031 13.4529 4.97557 13.264 5.03843L12.001 5.46043L10.738 5.04043C10.6446 5.00923 10.5459 4.99674 10.4477 5.00367C10.3494 5.01061 10.2535 5.03684 10.1653 5.08085C10.0772 5.12487 9.99862 5.18581 9.93405 5.26021C9.86949 5.3346 9.8202 5.41999 9.78903 5.51343Z"/></g></svg>