<svg xmlns="http://www.w3.org/2000/svg" width="25" height="24" fill="none" viewBox="0 0 25 24"><g id="phone"><path id="Icon" stroke="#fff" stroke-linecap="round" stroke-linejoin="round" stroke-width="2" d="M22.1694 16.9201V19.9201C22.1705 20.1986 22.1134 20.4743 22.0019 20.7294C21.8903 20.9846 21.7267 21.2137 21.5214 21.402C21.3162 21.5902 21.0739 21.7336 20.8101 21.8228C20.5463 21.912 20.2667 21.9452 19.9894 21.9201C16.9122 21.5857 13.9564 20.5342 11.3594 18.8501C8.94319 17.3148 6.8947 15.2663 5.35937 12.8501C3.66934 10.2413 2.61761 7.27109 2.28937 4.1801C2.26438 3.90356 2.29724 3.62486 2.38587 3.36172C2.47449 3.09859 2.61694 2.85679 2.80413 2.65172C2.99133 2.44665 3.21917 2.28281 3.47316 2.17062C3.72714 2.05843 4.00171 2.00036 4.27937 2.0001H7.27937C7.76467 1.99532 8.23516 2.16718 8.60313 2.48363C8.9711 2.80008 9.21144 3.23954 9.27937 3.7201C9.40599 4.68016 9.64082 5.62282 9.97937 6.5301C10.1139 6.88802 10.143 7.27701 10.0633 7.65098C9.98352 8.02494 9.79823 8.36821 9.52937 8.6401L8.25937 9.9101C9.68292 12.4136 11.7558 14.4865 14.2594 15.9101L15.5294 14.6401C15.8013 14.3712 16.1445 14.1859 16.5185 14.1062C16.8925 14.0264 17.2814 14.0556 17.6394 14.1901C18.5466 14.5286 19.4893 14.7635 20.4494 14.8901C20.9351 14.9586 21.3788 15.2033 21.6959 15.5776C22.013 15.9519 22.1815 16.4297 22.1694 16.9201Z"/></g></svg>