<svg xmlns="http://www.w3.org/2000/svg" width="24" height="24" fill="none" viewBox="0 0 24 24"><g id="healthicons:female-reproductive-system-outline"><path id="Vector" fill="#EA028C" fill-rule="evenodd" d="M3.1264 7.56427C2.8809 7.17027 3.0064 6.72627 3.4064 6.36177C3.6014 6.18427 3.8279 6.06577 4.0229 6.02027C4.2229 5.97377 4.3234 6.01527 4.3644 6.04777C5.2674 6.77177 5.8524 6.95927 6.3619 7.00377C6.5069 7.01627 6.6159 7.01977 6.7054 7.02277C6.9279 7.02977 7.0244 7.03277 7.2289 7.16377L7.7689 6.32227C7.3119 6.02927 6.9019 6.02027 6.6199 6.01427C6.56284 6.01399 6.5058 6.01165 6.4489 6.00727C6.1824 5.98427 5.7794 5.90027 4.9899 5.26727C4.6274 4.97727 4.1749 4.95827 3.7964 5.04627C3.4134 5.13527 3.0374 5.34577 2.7334 5.62227C2.1359 6.16577 1.6769 7.13027 2.2779 8.09327C2.5879 8.59077 2.9329 9.01827 3.2504 9.36377C3.2964 9.27877 3.3549 9.20027 3.4269 9.13077C3.6084 8.95577 3.8519 8.85977 4.1284 8.83727C3.75124 8.44876 3.41544 8.02214 3.1264 7.56427ZM6.2219 11.5438C6.1744 11.3288 6.0204 11.0363 5.7259 10.7653C5.4314 10.4938 5.1184 10.3553 4.8889 10.3153C4.7619 10.2928 4.6944 10.3033 4.6659 10.3118C4.6569 10.3393 4.6474 10.4028 4.6739 10.5218C4.7219 10.7373 4.8754 11.0293 5.1699 11.3008C5.4649 11.5723 5.7774 11.7108 6.0069 11.7508C6.1344 11.7733 6.2014 11.7628 6.2304 11.7543C6.2389 11.7263 6.2484 11.6633 6.2219 11.5438ZM6.2229 11.7713C6.2229 11.7713 6.2229 11.7698 6.2254 11.7668L6.2229 11.7713ZM6.2439 11.7493C6.2464 11.7468 6.2479 11.7463 6.2484 11.7463C6.2484 11.7463 6.2474 11.7478 6.2439 11.7493ZM4.6524 10.3168C4.65091 10.3179 4.64921 10.3188 4.6474 10.3193L4.6524 10.3168ZM6.9694 12.4353C7.5204 11.9038 7.2859 10.8453 6.4459 10.0713C5.6059 9.29627 4.4779 9.09927 3.9269 9.63077C3.3754 10.1618 3.6099 11.2208 4.4499 11.9948C5.2899 12.7693 6.4179 12.9668 6.9694 12.4353ZM20.8704 7.56427C21.1159 7.17027 20.9904 6.72627 20.5904 6.36177C20.3954 6.18427 20.1694 6.06577 19.9739 6.02027C19.7739 5.97377 19.6729 6.01527 19.6324 6.04777C18.7294 6.77177 18.1444 6.95927 17.6349 7.00377C17.4899 7.01627 17.3809 7.01977 17.2914 7.02277C17.0689 7.02977 16.9729 7.03277 16.7679 7.16377L16.2279 6.32227C16.6849 6.02927 17.0949 6.02027 17.3769 6.01427C17.4409 6.01327 17.4984 6.01177 17.5479 6.00727C17.8144 5.98427 18.2174 5.90027 19.0069 5.26727C19.3689 4.97727 19.8219 4.95827 20.2004 5.04627C20.5834 5.13527 20.9594 5.34577 21.2634 5.62227C21.8604 6.16577 22.3199 7.13027 21.7189 8.09327C21.4291 8.55414 21.0969 8.98686 20.7264 9.38577C20.6789 9.2907 20.6155 9.20446 20.5389 9.13077C20.3639 8.96177 20.1299 8.86677 19.8659 8.84027C20.2441 8.45081 20.5804 8.02319 20.8704 7.56427ZM17.7434 11.5438C17.7914 11.3288 17.9454 11.0363 18.2394 10.7653C18.5344 10.4938 18.8469 10.3553 19.0764 10.3153C19.2039 10.2928 19.2709 10.3033 19.2999 10.3118C19.3084 10.3393 19.3179 10.4028 19.2914 10.5218C19.2439 10.7373 19.0899 11.0293 18.7954 11.3008C18.5009 11.5723 18.1879 11.7108 17.9584 11.7508C17.8314 11.7733 17.7644 11.7628 17.7354 11.7543C17.7269 11.7263 17.7169 11.6633 17.7434 11.5438ZM17.7224 11.7493C17.7194 11.7468 17.7179 11.7463 17.7174 11.7463C17.7174 11.7463 17.7189 11.7478 17.7224 11.7493ZM19.3139 10.3168C19.3152 10.3179 19.3168 10.3187 19.3184 10.3193L19.3139 10.3168ZM16.9969 12.4353C16.4459 11.9038 16.6799 10.8453 17.5199 10.0713C18.3599 9.29627 19.4884 9.09927 20.0394 9.63077C20.5904 10.1618 20.3559 11.2208 19.5159 11.9948C18.6759 12.7693 17.5479 12.9668 16.9969 12.4353ZM9.3294 9.60577C9.5459 10.0823 9.8209 10.4708 10.0244 10.6758C10.3969 11.0503 10.5694 11.6518 10.6709 12.2368C10.7774 12.8488 10.8249 13.5743 10.8639 14.3008L10.8859 14.7308C10.9159 15.3253 10.9459 15.9153 10.9999 16.4708C11.0479 16.9628 11.1129 17.4058 11.2054 17.7778C11.2704 17.7218 11.3404 17.6623 11.4004 17.6158C11.4664 17.5658 11.5464 17.5088 11.6354 17.4633C11.7189 17.4203 11.8484 17.3673 12.0034 17.3673C12.1619 17.3673 12.2919 17.4223 12.3789 17.4698C12.4684 17.5188 12.5464 17.5798 12.6084 17.6323L12.6694 17.6873C12.7299 17.3523 12.7639 16.9683 12.7814 16.5443C12.7994 16.0983 12.7994 15.6368 12.7994 15.1628C12.7994 14.9268 12.7994 14.6878 12.8014 14.4453C12.8079 13.7338 12.8344 13.0103 12.9514 12.3703C13.0674 11.7373 13.2834 11.1173 13.7229 10.6753C14.0214 10.3753 14.3549 9.93477 14.6069 9.44577C14.8619 8.95177 15.0109 8.45277 14.9974 8.02527C14.9849 7.62527 14.8324 7.27827 14.4354 7.01077C14.0104 6.72477 13.2609 6.49977 12.0034 6.49977C10.7534 6.49977 10.0124 6.74227 9.5899 7.04727C9.1889 7.33727 9.0239 7.71977 9.0009 8.15777C8.9774 8.61527 9.1124 9.12927 9.3294 9.60577ZM9.0044 6.23677C9.6659 5.75877 10.6474 5.49977 12.0034 5.49977C13.3524 5.49977 14.3334 5.73577 14.9944 6.18177C15.6844 6.64677 15.9754 7.30527 15.9969 7.99377C16.0179 8.65527 15.7919 9.32877 15.4954 9.90377C15.2159 10.446 14.8575 10.9437 14.4319 11.3808C14.2019 11.6118 14.0369 11.9948 13.9349 12.5503C13.8349 13.0993 13.8079 13.7493 13.8014 14.4543C13.7994 14.6758 13.7994 14.9043 13.7994 15.1343C13.7994 15.6213 13.7994 16.1193 13.7804 16.5853C13.7519 17.2743 13.6804 17.9603 13.4834 18.5348C13.4464 18.6428 13.3684 18.8063 13.1959 18.9118C13.1182 18.9586 13.0311 18.9876 12.9408 18.9967C12.8506 19.0059 12.7594 18.995 12.6739 18.9648C12.5753 18.9294 12.4835 18.8775 12.4024 18.8113C12.3406 18.7616 12.2816 18.7087 12.2254 18.6528C12.1891 18.6171 12.1531 18.5811 12.1174 18.5448C12.0768 18.503 12.0351 18.4624 11.9924 18.4228C11.9404 18.4646 11.8896 18.5077 11.8399 18.5523C11.7979 18.5888 11.7514 18.6298 11.6939 18.6783C11.5954 18.7608 11.4139 18.9123 11.2074 18.9718C11.0859 19.0068 10.9024 19.0253 10.7169 18.9268C10.5672 18.8442 10.4532 18.7092 10.3969 18.5478C10.1844 17.9813 10.0739 17.2808 10.0044 16.5673C9.9484 15.9863 9.9169 15.3673 9.8864 14.7713L9.8649 14.3538C9.8264 13.6238 9.7804 12.9538 9.6859 12.4083C9.5859 11.8353 9.4499 11.5158 9.3159 11.3808C9.0124 11.0758 8.6744 10.5818 8.4189 10.0198C8.1634 9.45777 7.9674 8.77877 8.0024 8.10627C8.0384 7.41427 8.3209 6.73077 9.0044 6.23677Z" clip-rule="evenodd"/></g></svg>