<svg xmlns="http://www.w3.org/2000/svg" width="24" height="24" fill="none" viewBox="0 0 24 24"><g id="healthicons:sexual-reproductive-health-outline"><g id="Group"><path id="Vector" fill="#EA028C" fill-rule="evenodd" d="M8.77308 7.74015C8.05516 7.4598 7.26478 7.42425 6.5246 7.63903C5.78441 7.8538 5.13581 8.30689 4.67946 8.92797C4.2231 9.54905 3.98451 10.3034 4.00071 11.0739C4.01691 11.8445 4.287 12.5881 4.76905 13.1895C5.2511 13.7909 5.91817 14.2163 6.66673 14.3998C7.41529 14.5832 8.20348 14.5145 8.90898 14.2042C9.61448 13.8939 10.1978 13.3595 10.5685 12.6838C10.9392 12.008 11.0765 11.2289 10.9591 10.4672C10.9491 10.4022 10.952 10.336 10.9676 10.2722C10.9832 10.2084 11.0113 10.1484 11.0501 10.0954C11.0889 10.0425 11.1378 9.99767 11.194 9.96361C11.2501 9.92955 11.3124 9.90688 11.3773 9.8969C11.4422 9.88692 11.5085 9.88982 11.5723 9.90544C11.636 9.92106 11.6961 9.94909 11.7491 9.98792C11.802 10.0268 11.8468 10.0756 11.8809 10.1318C11.9149 10.1879 11.9376 10.2502 11.9476 10.3152C12.0984 11.2945 11.9217 12.2962 11.445 13.1649C10.9683 14.0336 10.2183 14.7206 9.31119 15.1194C8.40411 15.5182 7.39077 15.6065 6.4284 15.3705C5.46603 15.1346 4.60845 14.5876 3.98873 13.8144C3.36901 13.0413 3.02181 12.0852 3.00099 11.0945C2.98018 10.1039 3.28693 9.13403 3.87363 8.33553C4.46033 7.53702 5.29418 6.95448 6.24579 6.67832C7.1974 6.40215 8.21356 6.44779 9.13658 6.80815C9.19858 6.8314 9.25535 6.86674 9.30358 6.91211C9.35181 6.95748 9.39055 7.01198 9.41755 7.07244C9.44455 7.13291 9.45927 7.19813 9.46086 7.26433C9.46245 7.33053 9.45087 7.39639 9.42679 7.45808C9.40272 7.51976 9.36663 7.57605 9.32063 7.62368C9.27463 7.67131 9.21962 7.70933 9.1588 7.73552C9.09798 7.76172 9.03257 7.77557 8.96636 7.77628C8.90014 7.77699 8.83445 7.76504 8.77308 7.74015Z" clip-rule="evenodd"/><path id="Vector_2" fill="#EA028C" fill-rule="evenodd" d="M7 19.5V15.5C7 15.3674 7.05268 15.2402 7.14645 15.1464C7.24021 15.0527 7.36739 15 7.5 15C7.63261 15 7.75979 15.0527 7.85355 15.1464C7.94732 15.2402 8 15.3674 8 15.5V19.5C8 19.6326 7.94732 19.7598 7.85355 19.8536C7.75979 19.9473 7.63261 20 7.5 20C7.36739 20 7.24021 19.9473 7.14645 19.8536C7.05268 19.7598 7 19.6326 7 19.5Z" clip-rule="evenodd"/><path id="Vector_3" fill="#EA028C" fill-rule="evenodd" d="M5.5 17C5.5 16.8674 5.55268 16.7402 5.64645 16.6465C5.74021 16.5527 5.86739 16.5 6 16.5H9C9.13261 16.5 9.25979 16.5527 9.35355 16.6465C9.44732 16.7402 9.5 16.8674 9.5 17C9.5 17.1326 9.44732 17.2598 9.35355 17.3536C9.25979 17.4473 9.13261 17.5 9 17.5H6C5.86739 17.5 5.74021 17.4473 5.64645 17.3536C5.55268 17.2598 5.5 17.1326 5.5 17ZM14.451 7.63151C13.8969 7.47508 13.3128 7.45776 12.7504 7.5811C12.188 7.70443 11.6647 7.96461 11.2269 8.33856C10.7891 8.71251 10.4503 9.18869 10.2406 9.72489C10.0308 10.2611 9.95662 10.8408 10.0245 11.4125C10.0326 11.4779 10.0277 11.5442 10.0101 11.6077C9.99252 11.6712 9.96254 11.7306 9.92191 11.7824C9.88129 11.8343 9.83081 11.8776 9.77339 11.9099C9.71597 11.9422 9.65273 11.9628 9.58731 11.9706C9.52189 11.9784 9.45558 11.9731 9.39219 11.9552C9.32879 11.9373 9.26957 11.907 9.21792 11.8661C9.16627 11.8252 9.12322 11.7745 9.09122 11.7169C9.05923 11.6593 9.03893 11.596 9.0315 11.5305C8.91468 10.5465 9.12591 9.55149 9.63241 8.69983C10.1389 7.84816 10.9123 7.18748 11.8327 6.82032C12.7531 6.45316 13.7689 6.40004 14.7225 6.66921C15.6762 6.93838 16.5143 7.51479 17.1068 8.30898C17.6994 9.10318 18.0133 10.0707 17.9997 11.0616C17.9861 12.0524 17.6459 13.011 17.0319 13.7887C16.4178 14.5664 15.5642 15.1196 14.6036 15.3626C13.643 15.6056 12.629 15.5247 11.719 15.1325C11.6587 15.1065 11.6041 15.0689 11.5583 15.0219C11.5125 14.9748 11.4765 14.9192 11.4522 14.8582C11.4031 14.735 11.4051 14.5973 11.4575 14.4755C11.5099 14.3537 11.6086 14.2577 11.7318 14.2087C11.8551 14.1596 11.9927 14.1616 12.1145 14.214C12.5544 14.4035 13.0285 14.5008 13.5075 14.4997C13.9865 14.4986 14.4602 14.3991 14.8992 14.2076C15.3382 14.016 15.7332 13.7364 16.0598 13.386C16.3864 13.0356 16.6376 12.6218 16.7978 12.1704C16.958 11.719 17.0239 11.2396 16.9913 10.7617C16.9588 10.2838 16.8284 9.81768 16.6084 9.39219C16.3885 8.9667 16.0835 8.5909 15.7124 8.28805C15.3413 7.98519 14.912 7.76174 14.451 7.63151Z" clip-rule="evenodd"/><path id="Vector_4" fill="#EA028C" fill-rule="evenodd" d="M16.3964 8.60281C16.3027 8.50904 16.25 8.38189 16.25 8.24931C16.25 8.11673 16.3027 7.98957 16.3964 7.89581L20.1464 4.14581C20.1925 4.09805 20.2477 4.05996 20.3087 4.03376C20.3697 4.00755 20.4353 3.99376 20.5017 3.99318C20.5681 3.99261 20.6339 4.00526 20.6954 4.0304C20.7568 4.05554 20.8126 4.09266 20.8596 4.13961C20.9065 4.18656 20.9437 4.24238 20.9688 4.30383C20.9939 4.36528 21.0066 4.43112 21.006 4.49751C21.0054 4.5639 20.9916 4.62951 20.9654 4.69051C20.9392 4.75151 20.9011 4.80668 20.8534 4.85281L17.1034 8.60281C17.0096 8.69654 16.8825 8.7492 16.7499 8.7492C16.6173 8.7492 16.4902 8.69654 16.3964 8.60281Z" clip-rule="evenodd"/><path id="Vector_5" fill="#EA028C" fill-rule="evenodd" d="M20.462 7.49966C20.3964 7.49882 20.3315 7.48504 20.2712 7.45913C20.2109 7.43321 20.1562 7.39567 20.1104 7.34863C20.0646 7.3016 20.0284 7.246 20.0041 7.18501C19.9798 7.12401 19.9677 7.05883 19.9685 6.99316L19.9935 5.00616L18.0065 5.03116C17.8739 5.03289 17.7461 4.98186 17.6511 4.88931C17.5561 4.79676 17.5018 4.67027 17.5 4.53766C17.4983 4.40506 17.5493 4.27719 17.6419 4.18221C17.7344 4.08722 17.8609 4.03289 17.9935 4.03116L21.0065 3.99316L20.9685 7.00616C20.9677 7.07183 20.9539 7.13668 20.928 7.19702C20.9021 7.25736 20.8645 7.312 20.8175 7.35783C20.7705 7.40365 20.7149 7.43977 20.6539 7.4641C20.5929 7.48844 20.5277 7.50052 20.462 7.49966Z" clip-rule="evenodd"/></g></g></svg>