<svg xmlns="http://www.w3.org/2000/svg" width="24" height="24" fill="none" viewBox="0 0 24 24"><g id="ph:star-thin"><path id="Vector" fill="#EA028C" d="M22.0687 9.23741C22.0023 9.02615 21.874 8.83964 21.7006 8.70195C21.5271 8.56426 21.3164 8.48169 21.0956 8.46491L15.5221 7.98304C15.4544 7.97674 15.3896 7.95212 15.3348 7.91182C15.28 7.87152 15.2371 7.81707 15.2109 7.75429L13.0331 2.56523C12.948 2.36111 12.8044 2.18673 12.6204 2.06408C12.4364 1.94143 12.2202 1.87598 11.999 1.87598C11.7779 1.87598 11.5617 1.94143 11.3776 2.06408C11.1936 2.18673 11.05 2.36111 10.9649 2.56523L8.78994 7.75429C8.7637 7.81707 8.72087 7.87152 8.66604 7.91182C8.61121 7.95212 8.54645 7.97674 8.47869 7.98304L2.90807 8.46491C2.6868 8.48306 2.47585 8.56626 2.30177 8.70405C2.1277 8.84184 1.99828 9.02805 1.92982 9.23925C1.86136 9.45044 1.85692 9.67716 1.91705 9.89087C1.97719 10.1046 2.09921 10.2957 2.26776 10.4402L6.49588 14.1293C6.54868 14.1745 6.58786 14.2336 6.60906 14.2998C6.63025 14.366 6.63261 14.4368 6.61588 14.5043L5.34557 19.9896C5.29322 20.206 5.30695 20.4332 5.38499 20.6418C5.46304 20.8503 5.6018 21.0307 5.78338 21.1596C5.96086 21.2907 6.17358 21.3655 6.39403 21.3743C6.61448 21.3832 6.83252 21.3257 7.01994 21.2093L11.8106 18.303C11.8681 18.2676 11.9343 18.2489 12.0018 18.2489C12.0694 18.2489 12.1356 18.2676 12.1931 18.303L16.9837 21.2093C17.1731 21.3228 17.3917 21.3781 17.6122 21.3682C17.8328 21.3584 18.0456 21.2839 18.2241 21.1539C18.4026 21.024 18.539 20.8444 18.6161 20.6375C18.6933 20.4306 18.7079 20.2056 18.6581 19.9905L17.3906 14.5024C17.3738 14.4349 17.3762 14.3641 17.3974 14.2979C17.4186 14.2317 17.4578 14.1727 17.5106 14.1274L21.7387 10.4384C21.907 10.2937 22.0283 10.1022 22.0871 9.88827C22.1459 9.67432 22.1395 9.4477 22.0687 9.23741ZM21.2456 9.87491L17.0174 13.564C16.8627 13.6983 16.7475 13.8723 16.6844 14.0672C16.6213 14.2622 16.6126 14.4707 16.6593 14.6702L17.9268 20.1565C17.9445 20.2292 17.9401 20.3056 17.914 20.3757C17.8879 20.4459 17.8415 20.5067 17.7806 20.5502C17.7221 20.5936 17.6519 20.6183 17.5791 20.6212C17.5064 20.624 17.4344 20.6048 17.3728 20.5662L12.5821 17.6599C12.4074 17.5532 12.2066 17.4968 12.0018 17.4968C11.7971 17.4968 11.5963 17.5532 11.4215 17.6599L6.63088 20.5662C6.56919 20.6048 6.49727 20.624 6.42451 20.6212C6.35176 20.6183 6.28155 20.5936 6.22307 20.5502C6.16218 20.5067 6.11571 20.4459 6.08964 20.3757C6.06358 20.3056 6.05911 20.2292 6.07682 20.1565L7.34432 14.6684C7.39104 14.4688 7.38237 14.2603 7.31926 14.0654C7.25615 13.8704 7.14098 13.6964 6.98619 13.5621L2.75807 9.87491C2.70115 9.82607 2.66018 9.76128 2.64046 9.68892C2.62074 9.61656 2.62317 9.53994 2.64744 9.46898C2.67007 9.39916 2.71269 9.33752 2.77002 9.29169C2.82734 9.24586 2.89686 9.21786 2.96994 9.21116L8.54338 8.72929C8.7472 8.71112 8.9422 8.63771 9.10739 8.51695C9.27259 8.39619 9.40172 8.23267 9.48088 8.04398L11.6578 2.85398C11.6871 2.78743 11.7352 2.73086 11.7961 2.69114C11.857 2.65142 11.9282 2.63027 12.0009 2.63027C12.0736 2.63027 12.1448 2.65142 12.2057 2.69114C12.2666 2.73086 12.3147 2.78743 12.344 2.85398L14.5209 8.04398C14.6 8.23267 14.7292 8.39619 14.8944 8.51695C15.0596 8.63771 15.2546 8.71112 15.4584 8.72929L21.0318 9.21116C21.1049 9.21786 21.1744 9.24586 21.2317 9.29169C21.2891 9.33752 21.3317 9.39916 21.3543 9.46898C21.3788 9.53976 21.3815 9.61626 21.3622 9.68861C21.3428 9.76096 21.3022 9.82585 21.2456 9.87491Z"/></g></svg>