<svg width="24" height="24" viewBox="0 0 24 24" fill="none" xmlns="http://www.w3.org/2000/svg">
<g id="streamline:target" clip-path="url(#clip0_838_3702)">
<g id="Group">
<path id="Vector" d="M23.11 12.8848C22.9407 15.0113 22.1646 17.0447 20.8738 18.7431C19.583 20.4416 17.8317 21.7338 15.8281 22.4663C13.8245 23.1988 11.6527 23.3407 9.57085 22.8752C7.48895 22.4097 5.58443 21.3564 4.08355 19.8403C2.58268 18.3243 1.54854 16.4093 1.10399 14.3228C0.659449 12.2363 0.823188 10.0661 1.57576 8.06995C2.32833 6.0738 3.63809 4.33563 5.34944 3.06195C7.0608 1.78827 9.1018 1.03261 11.23 0.884766" stroke="#EA028C" stroke-linecap="round" stroke-linejoin="round"/>
<path id="Vector_2" d="M16.7843 13.8689C16.4747 14.6656 15.9714 15.3727 15.3199 15.9261C14.6684 16.4795 13.8892 16.8618 13.0528 17.0383C12.2164 17.2149 11.3492 17.1802 10.5296 16.9374C9.71002 16.6946 8.96387 16.2513 8.35865 15.6476C7.75342 15.0439 7.30822 14.2989 7.06329 13.4799C6.81836 12.661 6.78143 11.7939 6.95585 10.957C7.13027 10.1202 7.51052 9.34003 8.06224 8.6871C8.61395 8.03416 9.31971 7.52904 10.1157 7.21742M12.0014 12.0003L16.2871 7.71456M16.2871 7.71456L19.7157 8.57171L23.1443 5.14314L19.7157 4.28599L18.8586 0.857422L15.43 4.28599L16.2871 7.71456Z" stroke="#EA028C" stroke-linecap="round" stroke-linejoin="round"/>
</g>
</g>
<defs>
<clipPath id="clip0_838_3702">
<rect width="24" height="24" fill="white"/>
</clipPath>
</defs>
</svg>
