<svg xmlns="http://www.w3.org/2000/svg" width="48" height="48" fill="none" viewBox="0 0 48 48"><g id="logos:whatsapp-icon" clip-path="url(#clip0_826_9915)"><path id="Vector" fill="url(#paint0_linear_826_9915)" d="M1.38694 23.7126C1.38582 27.7455 2.43959 31.6834 4.44331 35.1543L1.19531 47.0132L13.3315 43.8311C16.6882 45.6585 20.4492 46.616 24.271 46.6162H24.2811C36.8978 46.6162 47.1681 36.3496 47.1735 23.7306C47.176 17.6158 44.7968 11.8659 40.4742 7.53994C36.1523 3.21436 30.4044 0.830916 24.2802 0.828125C11.6619 0.828125 1.39234 11.0942 1.38713 23.7126"/><path id="Vector_2" fill="url(#paint1_linear_826_9915)" d="M0.570164 23.7053C0.568861 27.8833 1.6604 31.962 3.73556 35.5572L0.371094 47.8413L12.9424 44.5451C16.4063 46.4337 20.3062 47.4294 24.2745 47.4309H24.2848C37.3542 47.4309 47.9934 36.795 47.999 23.7243C48.0012 17.3898 45.5365 11.4331 41.0595 6.95219C36.5819 2.47181 30.6284 0.00260465 24.2848 0C11.2131 0 0.575373 10.6344 0.570164 23.7053ZM8.05686 34.938L7.58747 34.1929C5.61426 31.0554 4.57277 27.4298 4.57426 23.7068C4.57835 12.8426 13.42 4.00372 24.2922 4.00372C29.5573 4.00595 34.5054 6.05842 38.2271 9.78233C41.9486 13.5066 43.9964 18.4573 43.9951 23.7228C43.9903 34.587 35.1484 43.427 24.2848 43.427H24.277C20.7397 43.4251 17.2704 42.4752 14.245 40.68L13.525 40.253L6.06486 42.2089L8.05686 34.938Z"/><path id="Vector_3" fill="#fff" d="M18.3572 13.7954C17.9133 12.8088 17.4461 12.7889 17.024 12.7716C16.6783 12.7567 16.2831 12.7578 15.8883 12.7578C15.4932 12.7578 14.8511 12.9065 14.3084 13.499C13.7652 14.0922 12.2344 15.5255 12.2344 18.4406C12.2344 21.356 14.3577 24.1733 14.6537 24.569C14.9501 24.964 18.7529 31.1377 24.7756 33.5128C29.781 35.4866 30.7996 35.094 31.8859 34.995C32.9724 34.8964 35.3918 33.5621 35.8853 32.1785C36.3793 30.795 36.3793 29.6092 36.2312 29.3614C36.0831 29.1145 35.688 28.9662 35.0954 28.67C34.5027 28.3736 31.5895 26.9402 31.0465 26.7424C30.5032 26.5448 30.1082 26.4462 29.7131 27.0395C29.3179 27.6319 28.1832 28.9662 27.8373 29.3614C27.4919 29.7575 27.146 29.8068 26.5536 29.5104C25.9607 29.2131 24.0524 28.5882 21.7884 26.5697C20.0269 24.9991 18.8377 23.0596 18.492 22.4663C18.1464 21.8739 18.455 21.5528 18.7521 21.2576C19.0184 20.9921 19.3449 20.5656 19.6414 20.2198C19.9369 19.8737 20.0355 19.6269 20.2331 19.2317C20.4308 18.8362 20.3319 18.4901 20.184 18.1937C20.0355 17.8974 18.884 14.9669 18.3572 13.7954Z"/></g><defs><linearGradient id="paint0_linear_826_9915" x1="2300.11" x2="2300.11" y1="4619.34" y2=".828" gradientUnits="userSpaceOnUse"><stop stop-color="#1FAF38"/><stop offset="1" stop-color="#60D669"/></linearGradient><linearGradient id="paint1_linear_826_9915" x1="2381.77" x2="2381.77" y1="4784.13" y2="0" gradientUnits="userSpaceOnUse"><stop stop-color="#F9F9F9"/><stop offset="1" stop-color="#fff"/></linearGradient><clipPath id="clip0_826_9915"><rect width="47.628" height="48" fill="#fff" transform="translate(0.371094)"/></clipPath></defs></svg>