<svg width="62" height="62" viewBox="0 0 62 62" style="background: #065B82" fill="none" xmlns="http://www.w3.org/2000/svg">
<rect x="0.5" y="0.5" width="61" height="61" rx="30.5" fill="#5891AB"/>
<path d="M48.6064 32.6338C48.342 35.9566 47.1293 39.1336 45.1124 41.7875C43.0955 44.4413 40.3592 46.4604 37.2285 47.6049C34.0979 48.7494 30.7045 48.9711 27.4515 48.2438C24.1986 47.5165 21.2227 45.8707 18.8776 43.5018C16.5325 41.133 14.9167 38.1408 14.2221 34.8807C13.5275 31.6206 13.7833 28.2296 14.9592 25.1106C16.1351 21.9916 18.1816 19.2758 20.8556 17.2856C23.5296 15.2955 26.7186 14.1148 30.0439 13.8838" stroke="#E6EFF3" stroke-width="1.5625" stroke-linecap="round" stroke-linejoin="round"/>
<path d="M38.7213 34.1712C38.2376 35.4162 37.4512 36.521 36.4332 37.3856C35.4152 38.2503 34.1977 38.8476 32.8909 39.1235C31.584 39.3994 30.229 39.3452 28.9484 38.9658C27.6678 38.5863 26.5019 37.8937 25.5562 36.9505C24.6106 36.0072 23.9149 34.8432 23.5322 33.5635C23.1495 32.2839 23.0918 30.929 23.3644 29.6215C23.6369 28.3139 24.231 27.0949 25.0931 26.0747C25.9551 25.0545 27.0579 24.2652 28.3016 23.7783M31.2481 31.2515L37.9445 24.5551M37.9445 24.5551L43.3016 25.8944L48.6588 20.5372L43.3016 19.198L41.9624 13.8408L36.6052 19.198L37.9445 24.5551Z" stroke="#E6EFF3" stroke-width="1.5625" stroke-linecap="round" stroke-linejoin="round"/>
</svg>
