<svg width="50" height="51" viewBox="0 0 50 51" fill="none" xmlns="http://www.w3.org/2000/svg">
<g id="healthicons:i-training-class-outline">
<g id="Group">
<path id="Vector" fill-rule="evenodd" clip-rule="evenodd" d="M6.27344 7.10547V36.1878H29.5258V34.1105H8.35075V9.18278H36.3945V11.3847H38.4718V7.10547H6.27344ZM38.4718 17.492C38.4718 18.043 38.2529 18.5713 37.8633 18.9609C37.4738 19.3505 36.9454 19.5693 36.3945 19.5693C35.8435 19.5693 35.3151 19.3505 34.9256 18.9609C34.536 18.5713 34.3171 18.043 34.3171 17.492C34.3171 16.9411 34.536 16.4127 34.9256 16.0231C35.3151 15.6336 35.8435 15.4147 36.3945 15.4147C36.9454 15.4147 37.4738 15.6336 37.8633 16.0231C38.2529 16.4127 38.4718 16.9411 38.4718 17.492ZM40.5491 17.492C40.5491 18.5939 40.1114 19.6506 39.3322 20.4298C38.5531 21.2089 37.4963 21.6466 36.3945 21.6466C35.2926 21.6466 34.2358 21.2089 33.4567 20.4298C32.6775 19.6506 32.2398 18.5939 32.2398 17.492C32.2398 16.3902 32.6775 15.3334 33.4567 14.5543C34.2358 13.7751 35.2926 13.3374 36.3945 13.3374C37.4963 13.3374 38.5531 13.7751 39.3322 14.5543C40.1114 15.3334 40.5491 16.3902 40.5491 17.492Z" fill="#FDE6F4"/>
<path id="Vector_2" fill-rule="evenodd" clip-rule="evenodd" d="M31.2963 23.5476C31.8756 22.9947 32.6455 22.6859 33.4463 22.6855H37.6861C39.2067 22.6855 40.6224 23.2028 41.713 24.2331C42.762 25.224 43.3084 26.4943 43.5317 27.6981C43.8828 29.5905 43.5192 31.6585 42.6249 33.4917V41.9007C42.625 42.5523 42.38 43.1801 41.9387 43.6595C41.4973 44.1389 40.8919 44.4348 40.2425 44.4886C39.5931 44.5423 38.9472 44.3499 38.4331 43.9496C37.9189 43.5493 37.5741 42.9703 37.467 42.3276L36.9123 38.9997L36.3577 42.3276C36.2506 42.9703 35.9058 43.5493 35.3916 43.9496C34.8775 44.3499 34.2316 44.5423 33.5822 44.4886C32.9328 44.4348 32.3274 44.1389 31.886 43.6595C31.4447 43.1801 31.1997 42.5523 31.1997 41.9007V32.13C30.7261 32.4036 30.1887 32.5476 29.6417 32.5476H24.3425C23.5161 32.5476 22.7236 32.2193 22.1392 31.6349C21.5549 31.0506 21.2266 30.258 21.2266 29.4316C21.2266 28.6052 21.5549 27.8127 22.1392 27.2283C22.7236 26.6439 23.5161 26.3156 24.3425 26.3156H28.3933L31.2963 23.5476ZM33.277 35.6428V41.9007C33.2774 42.0308 33.3266 42.156 33.4148 42.2516C33.5031 42.3471 33.624 42.4061 33.7536 42.4168C33.8833 42.4275 34.0122 42.3892 34.115 42.3094C34.2177 42.2296 34.2867 42.1141 34.3084 41.9858L35.3917 35.488C35.4321 35.2455 35.5571 35.0251 35.7446 34.8661C35.9322 34.7071 36.17 34.6198 36.4159 34.6197H37.4088C37.6547 34.6198 37.8925 34.7071 38.08 34.8661C38.2676 35.0251 38.3926 35.2455 38.4329 35.488L39.5162 41.9858C39.5379 42.1141 39.607 42.2296 39.7097 42.3094C39.8124 42.3892 39.9414 42.4275 40.071 42.4168C40.2007 42.4061 40.3216 42.3471 40.4099 42.2516C40.4981 42.156 40.5473 42.0308 40.5476 41.9007V33.2456C40.5476 33.0793 40.5875 32.9154 40.664 32.7678C41.4658 31.2191 41.7577 29.523 41.4897 28.0772C41.3266 27.1985 40.9454 26.3655 40.2869 25.7433C39.6149 25.1087 38.7238 24.7629 37.6861 24.7629H33.4474C33.1805 24.7629 32.9229 24.8657 32.7297 25.0495L29.5265 28.1053C29.3334 28.2897 29.0768 28.3927 28.8098 28.393H24.3425C24.0671 28.393 23.8029 28.5024 23.6081 28.6972C23.4133 28.892 23.3039 29.1561 23.3039 29.4316C23.3039 29.7071 23.4133 29.9713 23.6081 30.1661C23.8029 30.3608 24.0671 30.4703 24.3425 30.4703H29.6417C29.9087 30.47 30.1654 30.367 30.3584 30.1826L31.5217 29.0733C31.6689 28.933 31.854 28.839 32.0541 28.8029C32.2542 28.7668 32.4605 28.7903 32.6474 28.8703C32.8343 28.9504 32.9936 29.0836 33.1055 29.2533C33.2174 29.4231 33.2771 29.6219 33.277 29.8253V35.6428Z" fill="#FDE6F4"/>
</g>
</g>
</svg>
