<svg width="24" height="25" viewBox="0 0 24 25" fill="none" xmlns="http://www.w3.org/2000/svg">
<g id="message-circle">
<path id="Icon" d="M21 11.9668C21.0034 13.2867 20.6951 14.5887 20.1 15.7668C19.3944 17.1786 18.3098 18.366 16.9674 19.1961C15.6251 20.0262 14.0782 20.4662 12.5 20.4668C11.1801 20.4703 9.87812 20.1619 8.7 19.5668L3 21.4668L4.9 15.7668C4.30493 14.5887 3.99656 13.2867 4 11.9668C4.00061 10.3886 4.44061 8.84168 5.27072 7.49938C6.10083 6.15707 7.28825 5.07239 8.7 4.36683C9.87812 3.77176 11.1801 3.46338 12.5 3.46683H13C15.0843 3.58182 17.053 4.46159 18.5291 5.93768C20.0052 7.41378 20.885 9.38248 21 11.4668V11.9668Z" stroke="white" stroke-width="2" stroke-linecap="round" stroke-linejoin="round"/>
</g>
</svg>
