<svg width="25" height="25"  viewBox="0 0 25 25" fill="none" xmlns="http://www.w3.org/2000/svg">
<g id="phone">
<path id="Icon" d="M22.6694 17.3869V20.3869C22.6705 20.6654 22.6134 20.9411 22.5019 21.1962C22.3903 21.4514 22.2267 21.6805 22.0214 21.8688C21.8162 22.057 21.5739 22.2004 21.3101 22.2896C21.0463 22.3788 20.7667 22.412 20.4894 22.3869C17.4122 22.0525 14.4564 21.001 11.8594 19.3169C9.44319 17.7816 7.3947 15.7331 5.85937 13.3169C4.16934 10.7081 3.11761 7.73789 2.78937 4.64689C2.76438 4.37036 2.79724 4.09165 2.88587 3.82852C2.97449 3.56538 3.11694 3.32358 3.30413 3.11851C3.49133 2.91345 3.71917 2.7496 3.97316 2.63742C4.22714 2.52523 4.50171 2.46716 4.77937 2.46689H7.77937C8.26467 2.46212 8.73516 2.63397 9.10313 2.95043C9.4711 3.26688 9.71144 3.70634 9.77937 4.18689C9.90599 5.14696 10.1408 6.08962 10.4794 6.99689C10.6139 7.35482 10.643 7.74381 10.5633 8.11777C10.4835 8.49174 10.2982 8.835 10.0294 9.10689L8.75937 10.3769C10.1829 12.8804 12.2558 14.9533 14.7594 16.3769L16.0294 15.1069C16.3013 14.838 16.6445 14.6527 17.0185 14.573C17.3925 14.4932 17.7814 14.5224 18.1394 14.6569C19.0466 14.9954 19.9893 15.2303 20.9494 15.3569C21.4351 15.4254 21.8788 15.6701 22.1959 16.0444C22.513 16.4187 22.6815 16.8965 22.6694 17.3869Z" stroke="white" stroke-width="2" stroke-linecap="round" stroke-linejoin="round"/>
</g>
</svg>
