<svg width="41" height="41" style="background: #F58BCA" viewBox="0 0 41 41" fill="none" xmlns="http://www.w3.org/2000/svg">
<g id="material-symbols-light:policy-outline">
<path id="Vector" d="M20.3379 35.6069C16.9522 34.6012 14.139 32.5499 11.8984 29.453C9.65883 26.355 8.53906 22.8653 8.53906 18.9841V9.86864L20.3379 5.46094L32.1367 9.86864V18.9841C32.1367 20.8753 31.8429 22.7294 31.2552 24.5464C30.6675 26.3612 29.7556 28.1006 28.5195 29.7648L23.3196 24.5666C22.9005 24.897 22.4353 25.1442 21.924 25.3083C21.4138 25.4746 20.8851 25.5577 20.3379 25.5577C18.9479 25.5577 17.7573 25.0627 16.7662 24.0728C15.7751 23.0828 15.2801 21.8922 15.2813 20.5011C15.2813 19.1111 15.7762 17.9205 16.7662 16.9294C17.7562 15.9383 18.9468 15.4433 20.3379 15.4444C21.729 15.4444 22.9196 15.9394 23.9096 16.9294C24.8995 17.9194 25.3945 19.1099 25.3945 20.5011C25.3945 21.0213 25.3176 21.5236 25.1636 22.008C25.0097 22.4923 24.799 22.9474 24.5315 23.3732L28.292 27.132C28.9404 25.9162 29.4629 24.6385 29.8595 23.2991C30.254 21.9585 30.4512 20.5202 30.4512 18.9841V11.0199L20.3379 7.2611L10.2246 11.0199V18.9841C10.2246 22.3833 11.1798 25.4734 13.09 28.2546C15.0003 31.0357 17.4163 32.8898 20.3379 33.8169C21.0683 33.5922 21.7639 33.3045 22.4246 32.9539C23.0853 32.6033 23.7382 32.1887 24.3832 31.71L25.4451 32.9674C24.6057 33.5742 23.791 34.0888 23.0011 34.5113C22.2111 34.9327 21.3234 35.2979 20.3379 35.6069ZM20.3379 23.8722C21.2649 23.8722 22.0588 23.5424 22.7196 22.8828C23.3803 22.2231 23.7101 21.4292 23.709 20.5011C23.709 19.574 23.3792 18.7807 22.7196 18.1211C22.06 17.4615 21.2661 17.1311 20.3379 17.13C19.4108 17.13 18.6175 17.4603 17.9579 18.1211C17.2983 18.7818 16.9679 19.5751 16.9668 20.5011C16.9668 21.4281 17.2972 22.222 17.9579 22.8828C18.6186 23.5435 19.412 23.8733 20.3379 23.8722Z" fill="#FDE6F4"/>
</g>
</svg>
