<svg width="39" height="39" style="background: #065B82" viewBox="0 0 39 39" fill="none" xmlns="http://www.w3.org/2000/svg">
<g id="medical-icon:i-social-services" clip-path="url(#clip0_847_4852)">
<path id="Vector" d="M34.6731 21.4349V13.9333C34.6731 12.8686 35.5442 12.0029 36.6149 12.0029C37.1267 12.0031 37.6176 12.2065 37.9795 12.5685C38.3413 12.9305 38.5446 13.4214 38.5446 13.9333V24.2052C38.5443 25.6221 38.038 26.9923 37.1169 28.0689L30.7117 34.8714C30.0761 35.4699 29.9203 35.9995 29.9203 36.8023V38.0407H22.9483L22.9405 35.0942C22.9405 33.9721 22.8489 32.4725 24.2532 31.001L32.3809 22.8398C32.6642 22.5569 33.0465 22.3952 33.4468 22.3891C33.8472 22.3829 34.2343 22.5327 34.5262 22.8068C34.8181 23.0809 34.9919 23.4578 35.011 23.8577C35.03 24.2577 34.8927 24.6494 34.6282 24.9499L30.7081 29.1492C30.4541 29.4469 30.0239 30.0083 29.8106 30.6961C29.6956 31.0532 29.6627 31.4013 29.6561 31.8009H30.9178C30.9226 31.5163 30.9442 31.2874 31.0119 31.0753C31.1353 30.6787 31.3809 30.3216 31.5661 30.0928L35.5454 25.7252C36.0457 25.2207 36.3201 24.5677 36.3201 23.8811C36.3201 22.85 35.7 21.9016 34.6743 21.4343L34.6731 21.4349ZM5.30121 21.4349V13.9333C5.30121 12.8686 4.43009 12.0029 3.35946 12.0029C2.84759 12.0031 2.35675 12.2065 1.99487 12.5685C1.63298 12.9305 1.42969 13.4214 1.42969 13.9333V24.2052C1.42969 25.6257 1.94074 26.9977 2.85799 28.0689L9.26379 34.8714C9.89886 35.4699 10.0552 35.9995 10.0552 36.8023V38.0407H17.0272L17.035 35.0942C17.035 33.9721 17.1267 32.4725 15.7223 31.001L7.59464 22.8398C7.31131 22.5569 6.92904 22.3952 6.52868 22.3891C6.12831 22.3829 5.74125 22.5327 5.44935 22.8068C5.15744 23.0809 4.98359 23.4578 4.96455 23.8577C4.94551 24.2577 5.08279 24.6494 5.34734 24.9499L9.26799 29.1492C9.52202 29.4469 9.95218 30.0083 10.1655 30.6961C10.2811 31.0532 10.3135 31.4013 10.32 31.8009H9.0583C9.0535 31.5163 9.03253 31.2874 8.96363 31.0753C8.84081 30.6787 8.59458 30.3216 8.40945 30.0928L4.43009 25.7258C3.92982 25.2213 3.65542 24.5677 3.65542 23.8817C3.65542 22.85 4.27551 21.9022 5.30121 21.4349ZM20.7208 3.79735C21.1598 3.79735 21.5809 3.62295 21.8913 3.3125C22.2017 3.00206 22.3762 2.58101 22.3762 2.14198C22.3762 1.70295 22.2017 1.2819 21.8913 0.971454C21.5809 0.661012 21.1598 0.486607 20.7208 0.486607C20.2818 0.486607 19.8607 0.661012 19.5503 0.971454C19.2398 1.2819 19.0654 1.70295 19.0654 2.14198C19.0654 2.58101 19.2398 3.00206 19.5503 3.3125C19.8607 3.62295 20.2818 3.79735 20.7208 3.79735ZM11.7418 3.80634C11.5221 3.80728 11.3044 3.76492 11.1011 3.68168C10.8978 3.59844 10.713 3.47595 10.5571 3.32121C10.4011 3.16646 10.2773 2.98251 10.1925 2.77986C10.1077 2.57721 10.0637 2.35984 10.063 2.14018C10.0638 1.92057 10.1079 1.70326 10.1927 1.50068C10.2775 1.29811 10.4014 1.11422 10.5573 0.959545C10.7132 0.804868 10.898 0.682428 11.1013 0.599223C11.3045 0.516018 11.5221 0.473679 11.7418 0.474625C12.6692 0.474625 13.4229 1.21993 13.4229 2.14018C13.4229 3.06223 12.6692 3.80634 11.7418 3.80634ZM28.9437 10.1954C29.0962 10.1953 29.2472 10.1652 29.388 10.1068C29.5288 10.0483 29.6568 9.96274 29.7646 9.85486C29.8723 9.74699 29.9578 9.61895 30.0161 9.47805C30.0743 9.33715 30.1043 9.18615 30.1042 9.03367C30.1041 8.88119 30.074 8.73022 30.0156 8.58938C29.9572 8.44854 29.8716 8.32059 29.7637 8.21283C29.6558 8.10506 29.5278 8.0196 29.3869 7.96133C29.246 7.90305 29.095 7.87309 28.9425 7.87317C28.6346 7.87333 28.3393 7.99581 28.1217 8.21367C27.904 8.43153 27.7819 8.72692 27.782 9.03487C27.7822 9.34281 27.9047 9.63808 28.1225 9.85571C28.3404 10.0733 28.6358 10.1955 28.9437 10.1954Z" fill="#E6EFF3"/>
<path id="Vector_2" d="M30.6292 10.77H27.4976C27.4832 10.77 26.4497 10.676 26.4497 10.676L25.1382 6.10468C24.6104 4.26418 23.0671 4.3205 23.0671 4.3205H18.8217C18.8217 4.3205 17.2795 4.26418 16.7517 6.10468L16.1041 8.35558L15.4582 6.10468C14.9274 4.26418 13.3883 4.3205 13.3883 4.3205H10.1033C10.1033 4.3205 8.55994 4.26418 8.03211 6.10468L6.70985 10.7113C6.58404 11.1427 6.82009 11.4698 7.19754 11.5789C7.57378 11.6861 7.95902 11.4962 8.05548 11.1529L9.34359 6.66246L9.97087 6.66127L8.09082 14.4361H9.75219V19.9588C9.75219 20.4135 10.1188 20.7837 10.5748 20.7837C11.0295 20.7837 11.4016 20.4135 11.4016 19.9588V14.4361H12.0983V19.9588C12.0983 20.4135 12.4656 20.7837 12.9203 20.7837C13.1395 20.7841 13.3498 20.6973 13.5051 20.5426C13.6604 20.3879 13.7478 20.1779 13.7483 19.9588V14.4361H15.3809L13.5207 6.66127L14.1455 6.66246L15.4193 11.1055C15.4402 11.1816 15.4744 11.2511 15.5187 11.311C15.6433 11.4998 15.8608 11.604 16.1029 11.5962C16.3449 11.604 16.5612 11.5004 16.6858 11.3146C16.7378 11.2467 16.7747 11.1685 16.7943 11.0852L18.0614 6.66186L18.639 6.66067V19.7982C18.639 20.335 19.0781 20.7688 19.6137 20.7688C20.1499 20.7688 20.5843 20.335 20.5843 19.7982V12.3236H21.302V19.7982C21.302 20.335 21.737 20.7688 22.2714 20.7688C22.8088 20.7688 23.2492 20.335 23.2492 19.7982V6.66067L23.8771 6.66186L25.1101 11.1523C25.1772 11.3734 25.3617 11.5195 25.5828 11.5759C25.5924 11.5783 25.5971 11.5824 25.6049 11.5848C25.8014 11.6292 26.7073 11.8862 27.3723 12.0761V20.2242C27.3797 20.4004 27.4549 20.5669 27.5822 20.6889C27.7095 20.811 27.879 20.8792 28.0553 20.8792C28.2317 20.8792 28.4012 20.811 28.5285 20.6889C28.6558 20.5669 28.731 20.4004 28.7383 20.2242V16.1537H29.2728V20.2242C29.2728 20.6004 29.5777 20.9054 29.954 20.9054C30.3302 20.9054 30.6393 20.6004 30.6393 20.2242V12.6129H31.1636V15.1916C31.1636 15.4749 31.393 15.7026 31.6716 15.7026C31.7382 15.7023 31.8041 15.6888 31.8655 15.6629C31.9268 15.637 31.9825 15.5992 32.0291 15.5517C32.0758 15.5042 32.1126 15.4479 32.1374 15.3861C32.1622 15.3243 32.1746 15.2582 32.1737 15.1916V12.2583C32.1749 11.4369 31.4518 10.77 30.6304 10.77H30.6292Z" fill="#E6EFF3"/>
</g>
<defs>
<clipPath id="clip0_847_4852">
<rect width="38.3438" height="38.3438" fill="white" transform="translate(0.632812 0.128906)"/>
</clipPath>
</defs>
</svg>
