<svg width="38" height="38" style="background: #065B82"  viewBox="0 0 38 38" fill="none" xmlns="http://www.w3.org/2000/svg">
<g id="streamline:target" clip-path="url(#clip0_847_4820)">
<g id="Group">
<path id="Vector" d="M36.1064 20.1338C35.842 23.4566 34.6293 26.6336 32.6124 29.2875C30.5955 31.9413 27.8592 33.9604 24.7285 35.1049C21.5979 36.2494 18.2045 36.4711 14.9515 35.7438C11.6986 35.0165 8.72274 33.3707 6.37762 31.0018C4.0325 28.633 2.41666 25.6408 1.72206 22.3807C1.02746 19.1206 1.2833 15.7296 2.45919 12.6106C3.63508 9.49165 5.68159 6.77576 8.35558 4.78563C11.0296 2.79551 14.2186 1.6148 17.5439 1.38379" stroke="#E6EFF3" stroke-width="1.5625" stroke-linecap="round" stroke-linejoin="round"/>
<path id="Vector_2" d="M26.2213 21.6712C25.7376 22.9162 24.9512 24.021 23.9332 24.8856C22.9152 25.7503 21.6977 26.3476 20.3909 26.6235C19.084 26.8994 17.729 26.8452 16.4484 26.4658C15.1678 26.0863 14.0019 25.3937 13.0562 24.4505C12.1106 23.5072 11.4149 22.3432 11.0322 21.0635C10.6495 19.7839 10.5918 18.429 10.8644 17.1215C11.1369 15.8139 11.731 14.5949 12.5931 13.5747C13.4551 12.5545 14.5579 11.7652 15.8016 11.2783M18.7481 18.7515L25.4445 12.0551M25.4445 12.0551L30.8016 13.3944L36.1588 8.03725L30.8016 6.69796L29.4624 1.34082L24.1052 6.69796L25.4445 12.0551Z" stroke="#E6EFF3" stroke-width="1.5625" stroke-linecap="round" stroke-linejoin="round"/>
</g>
</g>
<defs>
<clipPath id="clip0_847_4820">
<rect width="37.5" height="37.5" fill="white" transform="translate(0 0.000976562)"/>
</clipPath>
</defs>
</svg>
