<svg width="24" height="25" viewBox="0 0 24 25" fill="none" xmlns="http://www.w3.org/2000/svg">
<g id="streamline:target" clip-path="url(#clip0_838_3711)">
<g id="Group">
<path id="Vector" d="M23.11 13.3848C22.9407 15.5113 22.1646 17.5447 20.8738 19.2431C19.583 20.9416 17.8317 22.2338 15.8281 22.9663C13.8245 23.6988 11.6527 23.8407 9.57085 23.3752C7.48895 22.9097 5.58443 21.8564 4.08355 20.3403C2.58268 18.8243 1.54854 16.9093 1.10399 14.8228C0.659449 12.7363 0.823188 10.5661 1.57576 8.56995C2.32833 6.5738 3.63809 4.83563 5.34944 3.56195C7.0608 2.28827 9.1018 1.53261 11.23 1.38477" stroke="#065B82" stroke-linecap="round" stroke-linejoin="round"/>
<path id="Vector_2" d="M16.7843 14.3689C16.4747 15.1656 15.9714 15.8727 15.3199 16.4261C14.6684 16.9795 13.8892 17.3618 13.0528 17.5383C12.2164 17.7149 11.3492 17.6802 10.5296 17.4374C9.71002 17.1946 8.96387 16.7513 8.35865 16.1476C7.75342 15.5439 7.30822 14.7989 7.06329 13.9799C6.81836 13.161 6.78143 12.2939 6.95585 11.457C7.13027 10.6202 7.51052 9.84003 8.06224 9.1871C8.61395 8.53416 9.31971 8.02904 10.1157 7.71742M12.0014 12.5003L16.2871 8.21456M16.2871 8.21456L19.7157 9.07171L23.1443 5.64314L19.7157 4.78599L18.8586 1.35742L15.43 4.78599L16.2871 8.21456Z" stroke="#065B82" stroke-linecap="round" stroke-linejoin="round"/>
</g>
</g>
<defs>
<clipPath id="clip0_838_3711">
<rect width="24" height="24" fill="white" transform="translate(0 0.5)"/>
</clipPath>
</defs>
</svg>
