<svg width="25" height="25" viewBox="0 0 25 25" fill="none" xmlns="http://www.w3.org/2000/svg">
<path d="M19.5 4.63106H15.32C15.1152 4.0465 14.7339 3.54002 14.2287 3.18168C13.7235 2.82334 13.1194 2.63086 12.5 2.63086C11.8806 2.63086 11.2765 2.82334 10.7713 3.18168C10.2661 3.54002 9.88476 4.0465 9.68 4.63106H5.5C4.97005 4.63264 4.46227 4.84387 4.08753 5.2186C3.7128 5.59333 3.50158 6.10112 3.5 6.63106V20.6311C3.50158 21.161 3.7128 21.6688 4.08753 22.0435C4.46227 22.4183 4.97005 22.6295 5.5 22.6311H19.5C20.0299 22.6295 20.5377 22.4183 20.9125 22.0435C21.2872 21.6688 21.4984 21.161 21.5 20.6311V6.63106C21.4984 6.10112 21.2872 5.59333 20.9125 5.2186C20.5377 4.84387 20.0299 4.63264 19.5 4.63106ZM12.5 4.63106C12.6978 4.63106 12.8911 4.68971 13.0556 4.79959C13.22 4.90947 13.3482 5.06565 13.4239 5.24838C13.4996 5.4311 13.5194 5.63217 13.4808 5.82615C13.4422 6.02013 13.347 6.19832 13.2071 6.33817C13.0673 6.47802 12.8891 6.57326 12.6951 6.61185C12.5011 6.65043 12.3 6.63063 12.1173 6.55494C11.9346 6.47925 11.7784 6.35108 11.6685 6.18663C11.5586 6.02218 11.5 5.82884 11.5 5.63106C11.5008 5.36609 11.6064 5.11219 11.7938 4.92483C11.9811 4.73746 12.235 4.63185 12.5 4.63106ZM10.5 9.63106L13.29 12.4251L15.81 9.90506L14.5 8.63106H18.5V12.6311L17.224 11.3201L13.292 15.2551L10.5 12.4611L7.914 15.0451L6.5 13.6311L10.5 9.63106ZM19.5 19.6311H5.5V17.6311H19.5V19.6311Z" fill="#EA028C"/>
</svg>
