<svg width="24" height="24" viewBox="0 0 24 24" fill="none" xmlns="http://www.w3.org/2000/svg">
<path d="M1 22H5V11H1V22ZM14 22L22 19V17H13L10.9 16.25L11.25 15.325L13 16H17V14L8.975 11H7V20.025L14 22ZM16 13L11.85 8.95C11.3333 8.45 10.896 7.896 10.538 7.288C10.18 6.68 10.0007 6.01734 10 5.3C10 4.38334 10.321 3.60434 10.963 2.963C11.605 2.32167 12.384 2.00067 13.3 2C13.8333 2 14.3333 2.11267 14.8 2.338C15.2667 2.56334 15.6667 2.86734 16 3.25C16.3333 2.86667 16.7333 2.56234 17.2 2.337C17.6667 2.11167 18.1667 1.99934 18.7 2C19.6167 2 20.396 2.321 21.038 2.963C21.68 3.605 22.0007 4.384 22 5.3C22 6.01667 21.825 6.67934 21.475 7.288C21.125 7.89667 20.6917 8.45067 20.175 8.95L16 13Z" fill="#EA028C"/>
</svg>
