<svg width="24" height="25" viewBox="0 0 24 25" fill="none" xmlns="http://www.w3.org/2000/svg">
<path d="M8 17.5V15.5H10.175C10.0917 15.8333 10.0377 16.1667 10.013 16.5C9.98833 16.8333 9.99233 17.1667 10.025 17.5H8ZM8 22.5C6.61667 22.5 5.43767 22.0123 4.463 21.037C3.48833 20.0617 3.00067 18.8827 3 17.5V8.5C2.45 8.5 1.97933 8.30433 1.588 7.913C1.19667 7.52167 1.00067 7.05067 1 6.5V4.5C1 3.95 1.196 3.47933 1.588 3.088C1.98 2.69667 2.45067 2.50067 3 2.5H13C13.55 2.5 14.021 2.696 14.413 3.088C14.805 3.48 15.0007 3.95067 15 4.5V6.5C15 7.05 14.8043 7.521 14.413 7.913C14.0217 8.305 13.5507 8.50067 13 8.5V11.525C12.6 11.775 12.2333 12.0667 11.9 12.4C11.5667 12.7333 11.275 13.1 11.025 13.5H8V11.5H11V8.5H5V17.5C5 18.3333 5.29167 19.0417 5.875 19.625C6.45833 20.2083 7.16667 20.5 8 20.5C8.5 20.5 8.95433 20.3917 9.363 20.175C9.77167 19.9583 10.1173 19.6583 10.4 19.275C10.5333 19.6083 10.6833 19.925 10.85 20.225C11.0167 20.525 11.2167 20.8167 11.45 21.1C11 21.5333 10.4833 21.875 9.9 22.125C9.31667 22.375 8.68333 22.5 8 22.5ZM16.5 19.5C17.2 19.5 17.7917 19.2583 18.275 18.775C18.7583 18.2917 19 17.7 19 17C19 16.3 18.7583 15.7083 18.275 15.225C17.7917 14.7417 17.2 14.5 16.5 14.5C15.8 14.5 15.2083 14.7417 14.725 15.225C14.2417 15.7083 14 16.3 14 17C14 17.7 14.2417 18.2917 14.725 18.775C15.2083 19.2583 15.8 19.5 16.5 19.5ZM21.6 23.5L18.9 20.8C18.5333 21.0333 18.15 21.2083 17.75 21.325C17.35 21.4417 16.9333 21.5 16.5 21.5C15.25 21.5 14.1877 21.0627 13.313 20.188C12.4383 19.3133 12.0007 18.2507 12 17C12 15.75 12.4377 14.6877 13.313 13.813C14.1883 12.9383 15.2507 12.5007 16.5 12.5C17.75 12.5 18.8127 12.9377 19.688 13.813C20.5633 14.6883 21.0007 15.7507 21 17C21 17.4333 20.9417 17.85 20.825 18.25C20.7083 18.65 20.5333 19.0333 20.3 19.4L23 22.1L21.6 23.5Z" fill="#EA028C"/>
</svg>
