<svg width="24" height="25" viewBox="0 0 24 25" fill="none" xmlns="http://www.w3.org/2000/svg">
<path d="M5.15 19.35C4.46667 18.55 3.93734 17.6543 3.562 16.663C3.18667 15.6717 2.99934 14.6173 3 13.5C3 11 3.875 8.875 5.625 7.125C7.375 5.375 9.5 4.5 12 4.5H12.2L10.6 2.9L12 1.5L16 5.5L12 9.5L10.575 8.075L12.15 6.5H12C10.0667 6.5 8.41667 7.18333 7.05 8.55C5.68334 9.91667 5 11.5667 5 13.5C5 14.35 5.13734 15.15 5.412 15.9C5.68667 16.65 6.07433 17.325 6.575 17.925L5.15 19.35ZM11 19C11 18.6167 10.871 18.2377 10.613 17.863C10.355 17.4883 10.0673 17.0967 9.75 16.688C9.43334 16.2793 9.146 15.8543 8.888 15.413C8.63 14.9717 8.50067 14.5007 8.5 14C8.5 13.0333 8.84167 12.2083 9.525 11.525C10.2083 10.8417 11.0333 10.5 12 10.5C12.9667 10.5 13.7917 10.8417 14.475 11.525C15.1583 12.2083 15.5 13.0333 15.5 14C15.5 14.5 15.371 14.971 15.113 15.413C14.855 15.855 14.5673 16.2797 14.25 16.687C13.9333 17.0957 13.646 17.4873 13.388 17.862C13.13 18.2367 13.0007 18.616 13 19H11ZM11 21.5V20H13V21.5H11ZM18.85 19.35L17.425 17.925C17.925 17.325 18.3127 16.65 18.588 15.9C18.8633 15.15 19.0007 14.35 19 13.5C19 12.4 18.771 11.3793 18.313 10.438C17.855 9.49667 17.2257 8.709 16.425 8.075L17.85 6.65C18.8167 7.48333 19.5833 8.48767 20.15 9.663C20.7167 10.8383 21 12.1173 21 13.5C21 14.6167 20.8127 15.671 20.438 16.663C20.0633 17.655 19.534 18.5507 18.85 19.35Z" fill="#EA028C"/>
</svg>
