<svg width="25" height="25" viewBox="0 0 25 25" fill="none" xmlns="http://www.w3.org/2000/svg">
<g clip-path="url(#clip0_1596_3798)">
<path fill-rule="evenodd" clip-rule="evenodd" d="M17.4491 0.5C18.0406 0.5 18.5206 0.98 18.5206 1.57143V2.97714C18.5206 3.2613 18.4077 3.53383 18.2068 3.73476C18.0058 3.93569 17.7333 4.04857 17.4491 4.04857C17.165 4.04857 16.8925 3.93569 16.6915 3.73476C16.4906 3.53383 16.3777 3.2613 16.3777 2.97714V1.57143C16.3777 0.98 16.8577 0.5 17.4491 0.5ZM7.43771 15.4794C7.99153 15.4907 8.54203 15.3913 9.05697 15.1871C9.5719 14.983 10.0409 14.6781 10.4366 14.2904C10.8322 13.9027 11.1465 13.44 11.3611 12.9293C11.5757 12.4186 11.6862 11.8702 11.6862 11.3163C11.6862 10.7624 11.5757 10.214 11.3611 9.7033C11.1465 9.19261 10.8322 8.72987 10.4366 8.34217C10.0409 7.95448 9.5719 7.64962 9.05697 7.44545C8.54203 7.24128 7.99153 7.1419 7.43771 7.15314C6.34821 7.17525 5.31078 7.62358 4.54809 8.40192C3.78539 9.18025 3.3582 10.2266 3.3582 11.3163C3.3582 12.406 3.78539 13.4523 4.54809 14.2307C5.31078 15.009 6.34821 15.4573 7.43771 15.4794ZM0.5 23.8057C0.528629 21.9844 1.27225 20.2473 2.57037 18.9695C3.86849 17.6916 5.61701 16.9754 7.43857 16.9754C9.26013 16.9754 11.0087 17.6916 12.3068 18.9695C13.6049 20.2473 14.3485 21.9844 14.3771 23.8057C14.3771 23.9899 14.304 24.1664 14.1738 24.2966C14.0436 24.4269 13.867 24.5 13.6829 24.5H1.19429C1.01015 24.5 0.833555 24.4269 0.703352 24.2966C0.573148 24.1664 0.5 23.9899 0.5 23.8057ZM24.0131 4.77371C24.1309 4.69399 24.2317 4.59161 24.3095 4.47255C24.3873 4.35349 24.4406 4.22013 24.4663 4.08025C24.492 3.94037 24.4896 3.79677 24.4593 3.65781C24.4289 3.51886 24.3712 3.38735 24.2895 3.27093C24.2078 3.15451 24.1038 3.05553 23.9834 2.97975C23.863 2.90398 23.7288 2.85292 23.5885 2.82956C23.4482 2.80621 23.3047 2.81102 23.1662 2.84371C23.0278 2.87641 22.8973 2.93634 22.7823 3.02L21.632 3.82743C21.4047 3.99274 21.2515 4.24072 21.2054 4.51792C21.1592 4.79513 21.2238 5.07937 21.3853 5.30939C21.5467 5.53941 21.7921 5.6968 22.0685 5.74763C22.3448 5.79846 22.6301 5.73867 22.8629 5.58114L24.0131 4.77371ZM10.6194 3.28229C10.4564 3.51469 10.3923 3.80228 10.4412 4.08191C10.49 4.36153 10.6479 4.61035 10.88 4.77371L12.032 5.58114C12.147 5.66481 12.2775 5.72473 12.416 5.75743C12.5544 5.79013 12.6979 5.79494 12.8382 5.77158C12.9785 5.74822 13.1128 5.69717 13.2331 5.62139C13.3535 5.54561 13.4575 5.44663 13.5392 5.33021C13.621 5.2138 13.6787 5.08228 13.709 4.94333C13.7394 4.80438 13.7417 4.66077 13.716 4.52089C13.6903 4.38101 13.637 4.24765 13.5592 4.12859C13.4814 4.00953 13.3806 3.90715 13.2629 3.82743L12.1109 3.02C11.8785 2.857 11.5909 2.79289 11.3112 2.84175C11.0316 2.8906 10.7828 3.04843 10.6194 3.28057V3.28229ZM17.3686 5.36857C17.8761 5.36314 18.3797 5.45802 18.8504 5.64776C19.3212 5.83749 19.7498 6.11835 20.1117 6.4742C20.4736 6.83004 20.7616 7.25388 20.9593 7.72136C21.1569 8.18883 21.2603 8.69075 21.2634 9.19829C21.2463 10.604 20.4063 11.9411 19.148 12.5686V14.4766C19.1453 14.5875 19.0993 14.693 19.0199 14.7706C18.9405 14.8481 18.8339 14.8915 18.7229 14.8914H16.172C16.061 14.8915 15.9544 14.8481 15.875 14.7706C15.7955 14.693 15.7495 14.5875 15.7469 14.4766V12.6011C15.1418 12.2928 14.6284 11.8308 14.258 11.2616C13.8877 10.6924 13.6734 10.0358 13.6366 9.35771C13.6185 8.85044 13.7008 8.3446 13.8788 7.86923C14.0568 7.39386 14.3269 6.95833 14.6737 6.58766C15.0204 6.21699 15.437 5.91848 15.8995 5.70927C16.362 5.50006 16.8612 5.38428 17.3686 5.36857Z" fill="#EA028C"/>
</g>
<defs>
<clipPath id="clip0_1596_3798">
<rect width="24" height="24" fill="white" transform="translate(0.5 0.5)"/>
</clipPath>
</defs>
</svg>
